<?xml version="1.0" encoding="UTF-8"?>
<!DOCTYPE svg PUBLIC "-//W3C//DTD SVG 1.1//EN" "http://www.w3.org/Graphics/SVG/1.1/DTD/svg11.dtd">
<!-- Creator: CorelDRAW 2017 -->
<svg xmlns="http://www.w3.org/2000/svg" xml:space="preserve" width="279.4mm" height="169.4mm" version="1.1" style="shape-rendering:geometricPrecision; text-rendering:geometricPrecision; image-rendering:optimizeQuality; fill-rule:evenodd; clip-rule:evenodd"
viewBox="0 0 27940 16940"
 xmlns:xlink="http://www.w3.org/1999/xlink">
 <defs>
  <style type="text/css">
   <![CDATA[
    .str6 {stroke:#F58634;stroke-width:20;stroke-miterlimit:22.9256}
    .str1 {stroke:#80622B;stroke-width:20;stroke-miterlimit:22.9256}
    .str2 {stroke:#F58634;stroke-width:10;stroke-miterlimit:22.9256}
    .str0 {stroke:#F58634;stroke-width:7.62;stroke-miterlimit:22.9256}
    .str3 {stroke:#F58634;stroke-width:10;stroke-linejoin:round;stroke-miterlimit:22.9256}
    .str5 {stroke:#FEFEFE;stroke-width:75;stroke-linecap:round;stroke-linejoin:round;stroke-miterlimit:22.9256}
    .str4 {stroke:#FEFEFE;stroke-width:20;stroke-linecap:round;stroke-linejoin:round;stroke-miterlimit:22.9256}
    .fil4 {fill:#FEFEFE}
    .fil0 {fill:#F58634}
    .fil7 {fill:#F58634}
    .fil2 {fill:#80622B}
    .fil6 {fill:#80622B}
    .fil5 {fill:#614B26}
    .fil3 {fill:#FEFEFE;fill-rule:nonzero}
    .fil1 {fill:#80622B;fill-rule:nonzero}
   ]]>
  </style>
 </defs>
 <g id="Capa_x0020_1">
  <metadata id="CorelCorpID_0Corel-Layer"/>
  <g id="_2141163704192">
   <path class="fil0 str0" d="M13119.67 6858.95c797,-272.13 5877.34,-164.09 6556.63,73.01 -90.9,130.74 -47.12,64.7 -144.03,199.8 -53.62,74.75 -94.27,134.88 -144.87,200.52 -65.55,85.03 -80.11,44.41 -177.84,17 -779.25,-218.55 -1745.22,-239.79 -2561.42,-283.18 -1186.51,-63.06 -2238.43,-265.31 -3470.92,-153.99 -304.99,-106.42 34.56,-122.65 -57.55,-53.16z"/>
   <path class="fil1" d="M7046.27 8043.63c-3.87,14.4 -6.77,26.99 -8.72,37.78 -1.95,10.79 -2.77,18.68 -2.47,23.66 1.47,4.43 3.81,8.45 7.03,12.04 3.21,3.6 4.86,5.13 4.95,4.57l8.09 0c-0.97,2.77 -2.56,7.75 -4.75,14.94 -2.21,7.2 -4.44,14.67 -6.73,22.43 -3.09,9.4 -6.25,19.37 -9.51,29.88 -25.9,0 -44.96,-4.84 -57.22,-14.53 -12.24,-9.68 -18.66,-24.76 -19.25,-45.24 -7.59,7.19 -16.42,14.53 -26.48,22 -10.07,7.47 -21.35,14.11 -33.86,19.93 -12.5,5.8 -26.31,10.51 -41.44,14.11 -15.12,3.6 -31.32,5.4 -48.59,5.4 -19.42,0 -37.68,-2.22 -54.79,-6.64 -17.12,-4.43 -31.38,-11.49 -42.83,-21.18 -11.43,-9.68 -19.34,-22.14 -23.72,-37.36 -4.37,-15.23 -3.79,-33.63 1.73,-55.22 7.17,-28.78 19.49,-53.28 36.93,-73.48 17.44,-20.2 37.27,-36.67 59.48,-49.41 22.21,-12.72 45.89,-21.86 71.03,-27.4 25.13,-5.53 49.03,-8.3 71.69,-8.3 12.94,0 25.56,0.42 37.84,1.25 12.27,0.83 25.21,2.63 38.81,5.4 1.98,-12.73 1.39,-23.67 -1.78,-32.8 -3.16,-9.13 -7.93,-16.61 -14.3,-22.42 -6.38,-5.81 -14.08,-10.1 -23.09,-12.87 -9,-2.77 -18.63,-4.15 -28.89,-4.15 -18.33,0 -39.23,5.12 -62.67,15.36 -23.44,10.24 -47.19,25.05 -71.25,44.42l-14.09 -29.06 -3.55 -8.3c-0.46,-0.56 -0.86,-0.56 -1.22,0 -0.36,0.55 -0.74,0.41 -1.15,-0.42 -0.41,-0.83 -1.12,-3.18 -2.14,-7.06 -1.02,-3.87 -2.41,-10.51 -4.17,-19.92 31.67,-23.25 63.2,-40.41 94.6,-51.49 31.39,-11.06 60.3,-16.59 86.73,-16.59 29.68,0 54,4 72.98,12.03 18.98,8.02 33.04,19.1 42.16,33.21 9.14,14.12 14.03,31.14 14.71,51.07 0.68,19.93 -1.92,41.79 -7.78,65.59 -2.47,8.86 -5.01,17.44 -7.66,25.74 -2.64,8.31 -5.19,16.88 -7.65,25.74 -2.45,8.85 -5.27,18.27 -8.44,28.23 -3.17,9.96 -6.03,19.65 -8.57,29.06zm-220.67 76.39c24.82,0 46.57,-4.57 65.25,-13.7 18.69,-9.14 34.42,-20.07 47.19,-32.8 12.77,-12.73 22.62,-25.74 29.54,-39.02 6.92,-13.29 11.61,-24.36 14.07,-33.21l3.43 -11.63c-8.91,-1.66 -19.34,-3.04 -31.31,-4.15 -11.97,-1.11 -23.07,-1.66 -33.33,-1.66 -14.56,0 -30,1.24 -46.3,3.73 -16.3,2.5 -31.53,6.79 -45.7,12.88 -14.16,6.08 -26.76,14.25 -37.8,24.49 -11.03,10.24 -18.52,22.83 -22.47,37.78 -1.31,4.98 -1.93,10.66 -1.84,17.02 0.09,6.37 1.82,12.59 5.18,18.68 3.37,6.09 9.32,11.21 17.84,15.36 8.52,4.15 20.61,6.23 36.25,6.23zm535.25 -64.76c-1.31,4.98 -1.73,10.24 -1.25,15.77 0.49,5.54 2.15,10.52 4.96,14.95 2.82,4.43 7.18,8.43 13.1,12.04 5.91,3.59 13.68,5.67 23.3,6.23l-20.5 79.71c-23.03,-1.12 -41.87,-5.68 -56.54,-13.71 -14.66,-8.02 -25.76,-18.12 -33.31,-30.3 -7.54,-12.18 -11.9,-25.74 -13.09,-40.69 -1.17,-14.95 0.17,-29.61 4.03,-44l125.94 -486.56 79.31 0 -125.95 486.56zm429.05 -11.63c-3.85,14.4 -6.76,26.99 -8.71,37.78 -1.95,10.79 -2.77,18.68 -2.47,23.66 1.47,4.43 3.81,8.45 7.03,12.04 3.21,3.6 4.86,5.13 4.94,4.57l8.1 0c-0.97,2.77 -2.56,7.75 -4.76,14.94 -2.19,7.2 -4.43,14.67 -6.72,22.43 -3.08,9.4 -6.26,19.37 -9.51,29.88 -25.89,0 -44.97,-4.84 -57.22,-14.53 -12.24,-9.68 -18.66,-24.76 -19.25,-45.24 -7.59,7.19 -16.42,14.53 -26.49,22 -10.06,7.47 -21.34,14.11 -33.85,19.93 -12.5,5.8 -26.32,10.51 -41.44,14.11 -15.13,3.6 -31.32,5.4 -48.58,5.4 -19.43,0 -37.69,-2.22 -54.8,-6.64 -17.11,-4.43 -31.39,-11.49 -42.83,-21.18 -11.44,-9.68 -19.34,-22.14 -23.71,-37.36 -4.38,-15.23 -3.8,-33.63 1.71,-55.22 7.19,-28.78 19.5,-53.28 36.94,-73.48 17.44,-20.2 37.27,-36.67 59.48,-49.41 22.22,-12.72 45.89,-21.86 71.03,-27.4 25.13,-5.53 49.03,-8.3 71.69,-8.3 12.95,0 25.56,0.42 37.83,1.25 12.29,0.83 25.22,2.63 38.82,5.4 1.98,-12.73 1.39,-23.67 -1.77,-32.8 -3.16,-9.13 -7.94,-16.61 -14.31,-22.42 -6.39,-5.81 -14.08,-10.1 -23.09,-12.87 -9,-2.77 -18.64,-4.15 -28.88,-4.15 -18.35,0 -39.24,5.12 -62.68,15.36 -23.44,10.24 -47.19,25.05 -71.25,44.42l-14.09 -29.06 -3.56 -8.3c-0.45,-0.56 -0.86,-0.56 -1.22,0 -0.34,0.55 -0.73,0.41 -1.14,-0.42 -0.41,-0.83 -1.12,-3.18 -2.14,-7.06 -1.01,-3.87 -2.41,-10.51 -4.17,-19.92 31.67,-23.25 63.2,-40.41 94.6,-51.49 31.39,-11.06 60.31,-16.59 86.74,-16.59 29.67,0 53.99,4 72.97,12.03 18.98,8.02 33.03,19.1 42.16,33.21 9.13,14.12 14.04,31.14 14.71,51.07 0.67,19.93 -1.92,41.79 -7.79,65.59 -2.46,8.86 -5.01,17.44 -7.65,25.74 -2.64,8.31 -5.19,16.88 -7.64,25.74 -2.46,8.85 -5.28,18.27 -8.45,28.23 -3.18,9.96 -6.03,19.65 -8.58,29.06zm-220.66 76.39c24.82,0 46.56,-4.57 65.25,-13.7 18.69,-9.14 34.42,-20.07 47.19,-32.8 12.77,-12.73 22.62,-25.74 29.54,-39.02 6.92,-13.29 11.62,-24.36 14.07,-33.21l3.43 -11.63c-8.91,-1.66 -19.35,-3.04 -31.31,-4.15 -11.97,-1.11 -23.08,-1.66 -33.33,-1.66 -14.56,0 -29.99,1.24 -46.3,3.73 -16.3,2.5 -31.53,6.79 -45.7,12.88 -14.16,6.08 -26.76,14.25 -37.8,24.49 -11.04,10.24 -18.53,22.83 -22.47,37.78 -1.31,4.98 -1.93,10.66 -1.85,17.02 0.1,6.37 1.83,12.59 5.18,18.68 3.37,6.09 9.32,11.21 17.85,15.36 8.52,4.15 20.6,6.23 36.25,6.23zm790.34 -14.11c-29.66,27.67 -60.38,49.12 -92.15,64.34 -31.77,15.23 -64.38,22.84 -97.82,22.84 -31.83,0 -58.39,-5.26 -79.67,-15.78 -21.3,-10.52 -37.64,-25.05 -49.06,-43.59 -11.4,-18.55 -18.09,-40.55 -20.06,-66.01 -1.97,-25.46 1,-53.14 8.89,-83.03 7.63,-28.23 18.83,-55.08 33.58,-80.54 14.75,-25.47 32.81,-47.88 54.17,-67.25 21.36,-19.38 45.47,-34.74 72.32,-46.09 26.85,-11.35 56.18,-17.02 88.02,-17.02 29.13,0 53.96,5.95 74.49,17.85 20.54,11.91 36.47,28.24 47.8,48.99 11.34,20.76 17.89,45.4 19.65,73.9 1.76,28.51 -1.56,59.37 -9.98,92.58l-308.29 0c-7.95,33.76 -4.85,61.44 9.32,83.03 14.17,21.58 39.87,32.38 77.09,32.38 18.34,0 35.9,-3.6 52.66,-10.8 16.77,-7.19 31.23,-15.22 43.4,-24.07 14.49,-9.97 27.91,-21.59 40.22,-34.88l35.42 53.15zm-101.13 -259.89c-15.64,0 -30.6,2.49 -44.86,7.47 -14.26,4.98 -27.31,11.77 -39.17,20.34 -11.85,8.58 -22.29,18.41 -31.29,29.48 -9.01,11.07 -16.04,22.42 -21.09,34.05l220.1 0c-0.26,-12.18 -2.36,-23.81 -6.3,-34.88 -3.94,-11.07 -9.59,-20.76 -16.92,-29.06 -7.34,-8.31 -16.01,-14.95 -26.02,-19.93 -10.02,-4.98 -21.5,-7.47 -34.45,-7.47zm431.9 -71.41c15.64,0 30.3,2.91 43.96,8.72 13.66,5.81 25.63,12.04 35.93,18.68 12.28,7.75 23.3,16.61 33.08,26.57l65.47 -254.07 79.29 0 -158.93 615.25 -79.3 0 14.07 -53.96c-5.81,6.08 -13.3,12.59 -22.47,19.51 -9.16,6.92 -19.62,13.42 -31.35,19.51 -11.74,6.09 -25.06,11.07 -39.96,14.94 -14.9,3.88 -30.98,5.82 -48.24,5.82 -29.13,0 -54.12,-5.82 -74.97,-17.44 -20.84,-11.63 -37.02,-27.26 -48.53,-46.91 -11.5,-19.65 -18.48,-42.34 -20.94,-68.09 -2.47,-25.74 0.11,-52.72 7.74,-80.95 6.92,-27.12 18.01,-53.28 33.26,-78.46 15.26,-25.19 33.67,-47.33 55.25,-66.43 21.6,-19.1 45.81,-34.32 72.66,-45.67 26.86,-11.34 54.85,-17.02 83.98,-17.02zm-89.4 345.41c15.65,0 31.88,-2.91 48.7,-8.72 16.81,-5.81 32.71,-14.39 47.7,-25.74 14.99,-11.35 28.28,-25.74 39.9,-43.18 11.61,-17.43 20.58,-37.77 26.91,-61.03 5.51,-21.58 6.84,-40.53 3.99,-56.86 -2.85,-16.34 -8.83,-29.9 -17.94,-40.69 -9.1,-10.8 -20.64,-18.96 -34.62,-24.49 -13.97,-5.54 -29.04,-8.31 -45.23,-8.31 -18.89,0 -36.36,4.01 -52.45,12.04 -16.08,8.02 -30.36,18.27 -42.81,30.72 -12.47,12.46 -23,26.43 -31.62,41.93 -8.62,15.5 -14.86,30.45 -18.72,44.84 -3.94,14.94 -5.86,30.72 -5.75,47.33 0.11,16.6 2.89,31.69 8.33,45.25 5.44,13.56 14.21,24.76 26.32,33.62 12.11,8.86 27.87,13.29 47.29,13.29zm614.69 -346.24l80.11 0 -106.74 415.15 -80.11 0 9.58 -40.68c-5.09,4.98 -11.28,10.1 -18.58,15.36 -7.29,5.26 -15.46,10.1 -24.52,14.53 -9.05,4.43 -19.06,8.16 -30.06,11.21 -11,3.04 -22.96,4.56 -35.91,4.56 -29.13,0 -52.82,-5.53 -71.05,-16.6 -18.24,-11.07 -31.55,-26.02 -39.95,-44.84 -8.4,-18.82 -12.41,-40.68 -12.04,-65.59 0.37,-24.91 4.02,-50.93 10.95,-78.05l55.34 -215.05 79.29 0 -55.59 216.71c-3.86,14.39 -6.71,29.2 -8.54,44.42 -1.83,15.23 -1.16,29.07 2.03,41.52 3.18,12.46 9.27,22.69 18.28,30.72 9,8.02 22.4,12.04 40.2,12.04 16.18,0 31.42,-3.46 45.71,-10.38 14.3,-6.92 26.94,-16.19 37.93,-27.81 10.98,-11.63 20.63,-25.19 28.99,-40.69 8.34,-15.5 14.66,-31.83 18.95,-48.99l55.73 -217.54zm249.1 343.75c15.64,0 32.25,-3.6 49.82,-10.8 17.58,-7.19 36.75,-16.88 57.53,-29.06l38.4 54.8c-32.13,22.7 -61.13,38.34 -87.01,46.91 -25.88,8.58 -52.04,12.88 -78.47,12.88 -29.67,0 -55.81,-5.4 -78.4,-16.19 -22.59,-10.8 -40.67,-25.47 -54.24,-44.01 -13.57,-18.54 -22.43,-40.41 -26.6,-65.59 -4.17,-25.19 -2.67,-52.18 4.52,-80.96 7.98,-30.44 20.62,-58.81 37.93,-85.11 17.31,-26.29 37.72,-49.13 61.24,-68.49 23.51,-19.38 49.34,-34.47 77.45,-45.26 28.11,-10.79 57,-16.19 86.67,-16.19 25.9,0 49.98,4.71 72.25,14.12 22.27,9.4 43.1,24.63 62.48,45.66l-66.79 54.8c-13.93,-11.07 -27.97,-20.48 -42.14,-28.23 -14.16,-7.75 -29.07,-11.62 -44.72,-11.62 -17.79,0 -35.91,3.74 -54.34,11.21 -18.42,7.47 -35.53,17.71 -51.31,30.72 -15.79,13.01 -29.44,27.95 -40.97,44.84 -11.53,16.88 -19.84,34.73 -24.93,53.55 -4.29,17.16 -4.83,33.62 -1.63,49.4 3.22,15.78 9.53,29.76 18.97,41.94 9.43,12.17 21.38,21.99 35.86,29.47 14.48,7.47 30.62,11.21 48.43,11.21zm532.62 -73.9c-3.86,14.4 -6.77,26.99 -8.71,37.78 -1.95,10.79 -2.78,18.68 -2.48,23.66 1.48,4.43 3.81,8.45 7.03,12.04 3.22,3.6 4.86,5.13 4.95,4.57l8.1 0c-0.97,2.77 -2.56,7.75 -4.76,14.94 -2.19,7.2 -4.44,14.67 -6.72,22.43 -3.09,9.4 -6.26,19.37 -9.52,29.88 -25.88,0 -44.96,-4.84 -57.21,-14.53 -12.25,-9.68 -18.66,-24.76 -19.25,-45.24 -7.59,7.19 -16.42,14.53 -26.49,22 -10.06,7.47 -21.34,14.11 -33.85,19.93 -12.5,5.8 -26.32,10.51 -41.44,14.11 -15.13,3.6 -31.32,5.4 -48.58,5.4 -19.43,0 -37.7,-2.22 -54.8,-6.64 -17.12,-4.43 -31.39,-11.49 -42.84,-21.18 -11.43,-9.68 -19.33,-22.14 -23.71,-37.36 -4.37,-15.23 -3.8,-33.63 1.72,-55.22 7.18,-28.78 19.5,-53.28 36.94,-73.48 17.44,-20.2 37.27,-36.67 59.48,-49.41 22.21,-12.72 45.88,-21.86 71.03,-27.4 25.13,-5.53 49.03,-8.3 71.68,-8.3 12.95,0 25.57,0.42 37.84,1.25 12.28,0.83 25.21,2.63 38.81,5.4 1.99,-12.73 1.39,-23.67 -1.77,-32.8 -3.16,-9.13 -7.93,-16.61 -14.31,-22.42 -6.38,-5.81 -14.07,-10.1 -23.08,-12.87 -9,-2.77 -18.64,-4.15 -28.89,-4.15 -18.34,0 -39.23,5.12 -62.68,15.36 -23.44,10.24 -47.18,25.05 -71.24,44.42l-14.09 -29.06 -3.56 -8.3c-0.46,-0.56 -0.86,-0.56 -1.22,0 -0.34,0.55 -0.73,0.41 -1.14,-0.42 -0.41,-0.83 -1.13,-3.18 -2.14,-7.06 -1.02,-3.87 -2.41,-10.51 -4.18,-19.92 31.67,-23.25 63.21,-40.41 94.6,-51.49 31.4,-11.06 60.31,-16.59 86.74,-16.59 29.68,0 53.99,4 72.98,12.03 18.97,8.02 33.03,19.1 42.16,33.21 9.13,14.12 14.03,31.14 14.71,51.07 0.67,19.93 -1.93,41.79 -7.79,65.59 -2.46,8.86 -5.01,17.44 -7.65,25.74 -2.64,8.31 -5.19,16.88 -7.65,25.74 -2.46,8.85 -5.28,18.27 -8.44,28.23 -3.18,9.96 -6.03,19.65 -8.58,29.06zm-220.66 76.39c24.82,0 46.56,-4.57 65.24,-13.7 18.69,-9.14 34.42,-20.07 47.19,-32.8 12.78,-12.73 22.63,-25.74 29.55,-39.02 6.92,-13.29 11.61,-24.36 14.07,-33.21l3.43 -11.63c-8.92,-1.66 -19.35,-3.04 -31.31,-4.15 -11.97,-1.11 -23.08,-1.66 -33.33,-1.66 -14.57,0 -30,1.24 -46.3,3.73 -16.3,2.5 -31.54,6.79 -45.7,12.88 -14.16,6.08 -26.77,14.25 -37.8,24.49 -11.04,10.24 -18.53,22.83 -22.48,37.78 -1.3,4.98 -1.92,10.66 -1.84,17.02 0.09,6.37 1.82,12.59 5.18,18.68 3.37,6.09 9.32,11.21 17.84,15.36 8.53,4.15 20.61,6.23 36.26,6.23zm460 -2.49c15.64,0 32.26,-3.6 49.83,-10.8 17.57,-7.19 36.75,-16.88 57.53,-29.06l38.39 54.8c-32.13,22.7 -61.12,38.34 -87.01,46.91 -25.87,8.58 -52.04,12.88 -78.47,12.88 -29.67,0 -55.81,-5.4 -78.39,-16.19 -22.6,-10.8 -40.68,-25.47 -54.25,-44.01 -13.57,-18.54 -22.43,-40.41 -26.6,-65.59 -4.17,-25.19 -2.66,-52.18 4.52,-80.96 7.98,-30.44 20.62,-58.81 37.93,-85.11 17.31,-26.29 37.73,-49.13 61.24,-68.49 23.52,-19.38 49.34,-34.47 77.45,-45.26 28.12,-10.79 57.01,-16.19 86.68,-16.19 25.89,0 49.98,4.71 72.25,14.12 22.26,9.4 43.09,24.63 62.47,45.66l-66.79 54.8c-13.93,-11.07 -27.97,-20.48 -42.14,-28.23 -14.16,-7.75 -29.06,-11.62 -44.72,-11.62 -17.79,0 -35.91,3.74 -54.33,11.21 -18.43,7.47 -35.54,17.71 -51.32,30.72 -15.79,13.01 -29.44,27.95 -40.97,44.84 -11.53,16.88 -19.84,34.73 -24.93,53.55 -4.29,17.16 -4.83,33.62 -1.62,49.4 3.21,15.78 9.53,29.76 18.96,41.94 9.43,12.17 21.39,21.99 35.87,29.47 14.48,7.47 30.61,11.21 48.42,11.21zm281.05 -344.57l77.68 0 -106.74 415.15 -77.67 0 106.73 -415.15zm110.02 -124.55l-20.11 77.21 -77.69 0 20.12 -77.21 77.68 0zm115.98 543.85c-27.51,0 -52.32,-5.27 -74.41,-15.78 -22.09,-10.52 -40.04,-25.19 -53.84,-44.01 -13.79,-18.82 -22.86,-41.09 -27.21,-66.84 -4.36,-25.74 -2.58,-53.55 5.3,-83.44 7.1,-28.24 19.39,-55.21 36.89,-80.96 17.5,-25.74 38.14,-48.29 61.92,-67.67 23.78,-19.37 49.51,-34.73 77.17,-46.08 27.67,-11.34 55.25,-17.02 82.76,-17.02 27.51,0 52.25,5.68 74.23,17.02 21.97,11.35 39.94,26.71 53.91,46.08 13.98,19.38 23.14,41.93 27.5,67.67 4.35,25.75 2.98,52.72 -4.12,80.96 -7.89,29.89 -20.72,57.7 -38.48,83.44 -17.77,25.75 -38.37,48.02 -61.8,66.84 -23.43,18.82 -49.04,33.49 -76.85,44.01 -27.8,10.51 -55.45,15.78 -82.97,15.78zm89.27 -344.58c-18.88,0 -37.27,3.74 -55.14,11.21 -17.9,7.47 -34.14,17.44 -48.76,29.89 -14.62,12.45 -27.22,26.71 -37.82,42.76 -10.59,16.05 -18.07,32.94 -22.45,50.65 -5.09,18.82 -6.49,36.4 -4.17,52.72 2.31,16.33 7.53,30.45 15.66,42.35 8.12,11.9 19.36,21.17 33.7,27.81 14.35,6.64 30.95,9.97 49.83,9.97 18.88,0 37.2,-3.33 54.96,-9.97 17.76,-6.64 33.77,-15.91 48.02,-27.81 14.26,-11.9 26.71,-26.02 37.35,-42.35 10.63,-16.32 18.49,-33.9 23.59,-52.72 4.38,-17.71 5.52,-34.6 3.44,-50.65 -2.09,-16.05 -7.15,-30.31 -15.19,-42.76 -8.04,-12.45 -19.04,-22.42 -32.97,-29.89 -13.95,-7.47 -30.63,-11.21 -50.05,-11.21zm50.76 -133.68l-81.73 0 28.78 -34.05 24.33 -31.54 -0.94 0.83 56.98 -69.75 61.5 0 -88.92 134.51zm190.64 474.93l-77.68 0 106.73 -415.15 77.68 0 -9.57 40.69c10.72,-9.96 25.71,-20.49 44.98,-31.56 19.25,-11.07 40.75,-16.6 64.48,-16.6 29.67,0 53.46,5.68 71.39,17.02 17.92,11.35 31.06,26.57 39.42,45.67 8.35,19.09 12.32,41.24 11.9,66.42 -0.41,25.19 -4.08,51.34 -11,78.47l-55.35 215.04 -78.48 0 55.59 -216.71c3.78,-13.84 6.45,-28.37 8.01,-43.59 1.56,-15.21 0.91,-29.2 -1.98,-41.92 -2.86,-12.74 -8.93,-23.12 -18.2,-31.14 -9.27,-8.03 -23.08,-12.04 -41.42,-12.04 -16.18,0 -31.29,3.46 -45.31,10.38 -14.03,6.92 -26.53,16.19 -37.51,27.81 -10.98,11.63 -20.65,25.19 -29,40.69 -8.34,15.49 -14.65,31.82 -18.95,48.99l-55.73 217.53zm986.32 -415.15l-483.42 615.26 -88.2 0 244.19 -310.53 -99.82 -304.73 93.06 0 73.09 221.69c3.21,-3.31 5.89,-6.64 8.03,-9.96 2.13,-3.32 4.23,-6.37 6.28,-9.13l18.18 -23.25c5.52,-7.75 11.32,-15.5 17.38,-23.25 6.06,-7.75 10.39,-13 12.98,-15.77l-0.13 0.82c17.29,-21.03 34.73,-42.9 52.29,-65.59 17.56,-22.7 34.18,-44.56 49.86,-65.59l-0.81 0 7.22 -9.97 89.82 0zm128.75 415.15l86.22 -335.44 -45.31 0 20.63 -80.53 45.32 0 11.96 -45.67c23.22,-90.23 72.87,-135.34 148.93,-135.34 19.42,0 35.61,6.92 48.56,20.76 12.95,13.83 22.67,29.33 29.17,46.49l-70.55 37.36c-6.18,-8.85 -11.68,-15.08 -16.52,-18.68 -4.83,-3.6 -10.17,-5.67 -16.02,-6.22 -7.19,1.1 -13.21,3.46 -18.09,7.05 -4.88,3.6 -9.07,8.03 -12.59,13.29 -3.51,5.25 -6.44,11.07 -8.78,17.43 -2.34,6.37 -4.21,12.32 -5.61,17.86l-11.97 45.67 75.26 0 -20.64 80.53 -75.26 0 -86.23 335.44 -78.48 0zm367.65 3.33c-27.5,0 -52.32,-5.27 -74.41,-15.78 -22.1,-10.52 -40.04,-25.19 -53.84,-44.01 -13.79,-18.82 -22.86,-41.09 -27.21,-66.84 -4.36,-25.74 -2.59,-53.55 5.31,-83.44 7.09,-28.24 19.38,-55.21 36.88,-80.96 17.5,-25.74 38.13,-48.29 61.92,-67.67 23.79,-19.37 49.51,-34.73 77.17,-46.08 27.67,-11.34 55.25,-17.02 82.76,-17.02 27.51,0 52.25,5.68 74.22,17.02 21.98,11.35 39.94,26.71 53.92,46.08 13.97,19.38 23.14,41.93 27.5,67.67 4.34,25.75 2.97,52.72 -4.12,80.96 -7.9,29.89 -20.72,57.7 -38.48,83.44 -17.77,25.75 -38.37,48.02 -61.8,66.84 -23.43,18.82 -49.05,33.49 -76.85,44.01 -27.8,10.51 -55.45,15.78 -82.97,15.78zm89.27 -344.58c-18.88,0 -37.26,3.74 -55.15,11.21 -17.89,7.47 -34.14,17.44 -48.76,29.89 -14.62,12.45 -27.21,26.71 -37.8,42.76 -10.6,16.05 -18.09,32.94 -22.46,50.65 -5.1,18.82 -6.48,36.4 -4.16,52.72 2.31,16.33 7.53,30.45 15.66,42.35 8.12,11.9 19.36,21.17 33.69,27.81 14.35,6.64 30.95,9.97 49.83,9.97 18.88,0 37.21,-3.33 54.96,-9.97 17.76,-6.64 33.77,-15.91 48.02,-27.81 14.27,-11.9 26.71,-26.02 37.35,-42.35 10.63,-16.32 18.5,-33.9 23.59,-52.72 4.38,-17.71 5.52,-34.6 3.44,-50.65 -2.09,-16.05 -7.15,-30.31 -15.2,-42.76 -8.04,-12.45 -19.03,-22.42 -32.96,-29.89 -13.95,-7.47 -30.63,-11.21 -50.05,-11.21zm695.63 -81.37c29.66,0 53.33,5.68 70.98,17.02 17.65,11.35 30.65,26.57 39.01,45.67 8.36,19.09 12.32,41.24 11.91,66.42 -0.42,25.19 -4.09,51.34 -11.01,78.47l-55.34 215.04 -78.48 0 55.59 -216.71c3.77,-13.84 6.44,-28.37 8.01,-43.59 1.55,-15.21 0.9,-29.2 -1.97,-41.92 -2.88,-12.74 -8.95,-23.12 -18.22,-31.14 -9.27,-8.03 -22.8,-12.04 -40.6,-12.04 -15.65,0 -30.3,3.18 -43.98,9.55 -13.66,6.36 -26.06,14.94 -37.17,25.74 -11.13,10.79 -20.78,23.38 -28.95,37.78 -8.18,14.38 -14.64,29.89 -19.38,46.49l-0.56 -1.66c-1.39,5.54 -2.88,11.63 -4.46,18.27 -2.89,11.62 -7.22,29.06 -13,52.31l-39.81 156.92 -79.3 0 55.6 -216.71c3.77,-13.84 6.44,-28.37 8,-43.59 1.56,-15.21 0.77,-29.2 -2.37,-41.92 -3.15,-12.74 -9.35,-23.12 -18.62,-31.14 -9.27,-8.03 -22.8,-12.04 -40.61,-12.04 -16.18,0 -31.28,3.46 -45.3,10.38 -14.04,6.92 -26.67,16.19 -37.93,27.81 -11.25,11.63 -21.04,25.19 -29.39,40.69 -8.36,15.49 -14.67,31.82 -18.95,48.99l-55.74 217.53 -77.68 0 106.74 -415.15 77.67 0 -9.82 42.35c5.09,-4.98 11.46,-10.38 19.11,-16.2 7.64,-5.8 16.04,-11.2 25.17,-16.18 9.14,-4.99 19.36,-9.14 30.67,-12.46 11.31,-3.32 23.16,-4.98 35.57,-4.98 22.12,0 40.69,4.57 55.72,13.7 15.04,9.13 27.09,19.23 36.15,30.3 10.87,13.29 19.65,27.96 26.32,44.01 5.44,-7.2 12.73,-15.91 21.87,-26.15 9.15,-10.24 19.97,-19.93 32.44,-29.06 12.49,-9.13 26.51,-16.89 42.06,-23.25 15.56,-6.36 32.24,-9.55 50.05,-9.55zm475.5 339.6c-29.66,27.67 -60.38,49.12 -92.15,64.34 -31.78,15.23 -64.38,22.84 -97.82,22.84 -31.84,0 -58.4,-5.26 -79.67,-15.78 -21.3,-10.52 -37.65,-25.05 -49.06,-43.59 -11.4,-18.55 -18.09,-40.55 -20.06,-66.01 -1.97,-25.46 1,-53.14 8.89,-83.03 7.63,-28.23 18.82,-55.08 33.58,-80.54 14.76,-25.47 32.81,-47.88 54.17,-67.25 21.36,-19.38 45.46,-34.74 72.31,-46.09 26.86,-11.35 56.2,-17.02 88.02,-17.02 29.14,0 53.97,5.95 74.5,17.85 20.54,11.91 36.47,28.24 47.8,48.99 11.33,20.76 17.88,45.4 19.65,73.9 1.77,28.51 -1.56,59.37 -9.98,92.58l-308.29 0c-7.96,33.76 -4.85,61.44 9.32,83.03 14.17,21.58 39.87,32.38 77.09,32.38 18.34,0 35.9,-3.6 52.66,-10.8 16.76,-7.19 31.23,-15.22 43.4,-24.07 14.49,-9.97 27.91,-21.59 40.22,-34.88l35.42 53.15zm-101.13 -259.89c-15.64,0 -30.6,2.49 -44.86,7.47 -14.26,4.98 -27.31,11.77 -39.17,20.34 -11.86,8.58 -22.29,18.41 -31.29,29.48 -9.01,11.07 -16.04,22.42 -21.08,34.05l220.09 0c-0.26,-12.18 -2.36,-23.81 -6.3,-34.88 -3.94,-11.07 -9.58,-20.76 -16.92,-29.06 -7.34,-8.31 -16.01,-14.95 -26.03,-19.93 -10.01,-4.98 -21.49,-7.47 -34.44,-7.47zm224.14 342.91l-77.68 0 106.74 -415.15 77.68 0 -9.58 40.69c10.73,-9.96 25.72,-20.49 44.98,-31.56 19.25,-11.07 40.75,-16.6 64.49,-16.6 29.67,0 53.46,5.68 71.38,17.02 17.93,11.35 31.07,26.57 39.42,45.67 8.35,19.09 12.32,41.24 11.9,66.42 -0.41,25.19 -4.08,51.34 -11,78.47l-55.35 215.04 -78.48 0 55.6 -216.71c3.77,-13.84 6.44,-28.37 8,-43.59 1.56,-15.21 0.91,-29.2 -1.97,-41.92 -2.87,-12.74 -8.94,-23.12 -18.21,-31.14 -9.27,-8.03 -23.07,-12.04 -41.41,-12.04 -16.19,0 -31.29,3.46 -45.32,10.38 -14.02,6.92 -26.52,16.19 -37.51,27.81 -10.98,11.63 -20.64,25.19 -28.99,40.69 -8.35,15.49 -14.67,31.82 -18.95,48.99l-55.74 217.53zm456.55 4.16c-75.53,0 -101.63,-45.39 -78.32,-136.18l52.72 -203.42 -38.04 0 20.51 -79.71 38.03 0 20.76 -81.37 79.31 0 -20.77 81.37 103.58 0 -20.51 79.71 -103.57 0 -52.73 203.42c-1.49,6.1 -2.88,12.46 -4.19,19.1 -1.3,6.65 -1.57,12.73 -0.82,18.27 0.76,5.54 2.75,10.1 5.96,13.7 3.21,3.6 8.6,5.4 16.16,5.4 5.93,0 12.3,-1.94 19.11,-5.82 6.8,-3.87 15.92,-11.34 27.36,-22.41l47.62 42.34c-15.17,17.72 -32.53,33.07 -52.09,46.09 -19.55,13 -39.59,19.51 -60.08,19.51z"/>
   <path class="fil1" d="M14711.19 8192.26c-27.5,0 -52.32,-5.27 -74.41,-15.78 -22.1,-10.52 -40.04,-25.19 -53.84,-44.01 -13.79,-18.82 -22.86,-41.09 -27.21,-66.84 -4.36,-25.74 -2.59,-53.55 5.31,-83.44 7.09,-28.24 19.38,-55.21 36.88,-80.96 17.5,-25.74 38.13,-48.29 61.92,-67.67 23.79,-19.37 49.51,-34.73 77.17,-46.08 27.67,-11.34 55.25,-17.02 82.76,-17.02 27.51,0 52.25,5.68 74.22,17.02 21.98,11.35 39.94,26.71 53.92,46.08 13.97,19.38 23.14,41.93 27.5,67.67 4.34,25.75 2.97,52.72 -4.12,80.96 -7.9,29.89 -20.72,57.7 -38.48,83.44 -17.77,25.75 -38.37,48.02 -61.8,66.84 -23.43,18.82 -49.05,33.49 -76.85,44.01 -27.8,10.51 -55.45,15.78 -82.97,15.78zm89.27 -344.58c-18.88,0 -37.26,3.74 -55.15,11.21 -17.89,7.47 -34.14,17.44 -48.76,29.89 -14.62,12.45 -27.21,26.71 -37.8,42.76 -10.6,16.05 -18.09,32.94 -22.46,50.65 -5.1,18.82 -6.48,36.4 -4.16,52.72 2.31,16.33 7.53,30.45 15.66,42.35 8.12,11.9 19.36,21.17 33.69,27.81 14.35,6.64 30.95,9.97 49.83,9.97 18.88,0 37.21,-3.33 54.96,-9.97 17.76,-6.64 33.77,-15.91 48.02,-27.81 14.27,-11.9 26.71,-26.02 37.35,-42.35 10.63,-16.32 18.5,-33.9 23.59,-52.72 4.38,-17.71 5.52,-34.6 3.44,-50.65 -2.09,-16.05 -7.15,-30.31 -15.2,-42.76 -8.04,-12.45 -19.03,-22.42 -32.96,-29.89 -13.95,-7.47 -30.63,-11.21 -50.05,-11.21zm690.48 258.23c-29.67,27.67 -60.38,49.12 -92.15,64.34 -31.78,15.23 -64.39,22.84 -97.82,22.84 -31.84,0 -58.4,-5.26 -79.68,-15.78 -21.29,-10.52 -37.64,-25.05 -49.05,-43.59 -11.4,-18.55 -18.1,-40.55 -20.06,-66.01 -1.97,-25.46 0.99,-53.14 8.88,-83.03 7.64,-28.23 18.83,-55.08 33.58,-80.54 14.76,-25.47 32.82,-47.88 54.17,-67.25 21.36,-19.38 45.47,-34.74 72.32,-46.09 26.85,-11.35 56.19,-17.02 88.01,-17.02 29.14,0 53.98,5.95 74.51,17.85 20.53,11.91 36.46,28.24 47.8,48.99 11.32,20.76 17.88,45.4 19.64,73.9 1.77,28.51 -1.55,59.37 -9.97,92.58l-308.3 0c-7.96,33.76 -4.85,61.44 9.33,83.03 14.17,21.58 39.86,32.38 77.08,32.38 18.34,0 35.9,-3.6 52.67,-10.8 16.76,-7.19 31.23,-15.22 43.4,-24.07 14.49,-9.97 27.9,-21.59 40.22,-34.88l35.42 53.15zm-101.13 -259.89c-15.65,0 -30.6,2.49 -44.86,7.47 -14.27,4.98 -27.33,11.77 -39.18,20.34 -11.85,8.58 -22.28,18.41 -31.29,29.48 -9.01,11.07 -16.03,22.42 -21.09,34.05l220.11 0c-0.27,-12.18 -2.37,-23.81 -6.31,-34.88 -3.94,-11.07 -9.58,-20.76 -16.91,-29.06 -7.34,-8.31 -16.02,-14.95 -26.03,-19.93 -10.01,-4.98 -21.49,-7.47 -34.44,-7.47zm691.32 -79.71c29.66,0 53.33,5.68 70.98,17.02 17.65,11.35 30.65,26.57 39.01,45.67 8.36,19.09 12.32,41.24 11.91,66.42 -0.42,25.19 -4.09,51.34 -11.01,78.47l-55.34 215.04 -78.49 0 55.6 -216.71c3.78,-13.84 6.44,-28.37 8,-43.59 1.56,-15.21 0.91,-29.2 -1.96,-41.92 -2.88,-12.74 -8.94,-23.12 -18.22,-31.14 -9.27,-8.03 -22.8,-12.04 -40.6,-12.04 -15.65,0 -30.3,3.18 -43.97,9.55 -13.67,6.36 -26.07,14.94 -37.19,25.74 -11.12,10.79 -20.77,23.38 -28.94,37.78 -8.18,14.38 -14.64,29.89 -19.38,46.49l-0.55 -1.66c-1.4,5.54 -2.89,11.63 -4.46,18.27 -2.9,11.62 -7.23,29.06 -13.01,52.31l-39.81 156.92 -79.3 0 55.6 -216.71c3.77,-13.84 6.44,-28.37 8,-43.59 1.56,-15.21 0.77,-29.2 -2.37,-41.92 -3.14,-12.74 -9.35,-23.12 -18.62,-31.14 -9.27,-8.03 -22.8,-12.04 -40.6,-12.04 -16.19,0 -31.29,3.46 -45.32,10.38 -14.03,6.92 -26.66,16.19 -37.91,27.81 -11.26,11.63 -21.05,25.19 -29.4,40.69 -8.35,15.49 -14.67,31.82 -18.96,48.99l-55.72 217.53 -77.69 0 106.74 -415.15 77.67 0 -9.82 42.35c5.09,-4.98 11.46,-10.38 19.11,-16.2 7.64,-5.8 16.04,-11.2 25.18,-16.18 9.13,-4.99 19.36,-9.14 30.66,-12.46 11.31,-3.32 23.17,-4.98 35.58,-4.98 22.11,0 40.68,4.57 55.71,13.7 15.04,9.13 27.08,19.23 36.15,30.3 10.88,13.29 19.65,27.96 26.32,44.01 5.44,-7.2 12.72,-15.91 21.88,-26.15 9.14,-10.24 19.96,-19.93 32.44,-29.06 12.48,-9.13 26.5,-16.89 42.06,-23.25 15.55,-6.36 32.23,-9.55 50.04,-9.55zm312.07 422.62c-17.8,0 -33.97,-2.76 -48.48,-8.3 -14.51,-5.53 -26.64,-11.62 -36.39,-18.27 -11.75,-7.74 -21.92,-16.88 -30.53,-27.4l-65.47 254.08 -78.49 0 158.94 -615.26 78.49 0 -14.2 54.8c6.34,-6.09 14.37,-12.59 24.08,-19.51 9.71,-6.92 20.56,-13.42 32.57,-19.52 12.02,-6.08 25.35,-11.2 40.02,-15.35 14.68,-4.16 30.65,-6.23 47.91,-6.23 29.13,0 53.84,5.81 74.15,17.44 20.31,11.62 36.21,27.26 47.72,46.91 11.5,19.65 18.35,42.35 20.55,68.08 2.2,25.74 -0.26,52.73 -7.35,80.95 -6.92,27.13 -18.14,53.29 -33.66,78.47 -15.52,25.19 -33.94,47.33 -55.25,66.42 -21.33,19.1 -45.13,34.32 -71.45,45.67 -26.31,11.35 -54.03,17.02 -83.16,17.02zm88.71 -346.23c-15.64,0 -31.87,2.9 -48.69,8.72 -16.82,5.81 -32.88,14.53 -48.17,26.15 -15.3,11.63 -28.89,26.16 -40.78,43.59 -11.88,17.44 -20.72,37.78 -26.5,61.03 -5.52,21.59 -6.71,40.55 -3.6,56.88 3.13,16.32 9.24,29.89 18.35,40.68 9.1,10.79 20.65,18.96 34.62,24.5 13.98,5.53 29.05,8.3 45.24,8.3 18.34,0 35.55,-4.02 51.64,-12.04 16.09,-8.03 30.35,-18.27 42.81,-30.73 12.46,-12.45 23.14,-26.43 32.03,-41.92 8.88,-15.5 15.26,-30.45 19.11,-44.84 3.95,-14.95 5.86,-30.72 5.76,-47.33 -0.11,-16.6 -3.01,-31.83 -8.67,-45.67 -5.67,-13.84 -14.42,-25.18 -26.26,-34.04 -11.83,-8.86 -27.46,-13.28 -46.89,-13.28zm431.06 -76.39c21.04,0 39.65,3.46 55.83,10.38 16.19,6.92 30.76,17.29 43.71,31.13l-60.61 72.24c-7.54,-10.52 -16.16,-19.23 -25.87,-26.15 -9.71,-6.92 -20.77,-10.38 -33.18,-10.38 -16.18,0 -31.29,3.46 -45.31,10.38 -14.02,6.92 -26.67,16.19 -37.92,27.81 -11.24,11.63 -21.04,25.19 -29.39,40.69 -8.35,15.49 -14.67,31.82 -18.96,48.99l-55.73 217.53 -77.69 0 106.75 -415.15 77.68 0 -9.06 37.37c7.42,-6.09 15.61,-11.91 24.57,-17.44 8.95,-5.54 18.33,-10.38 28.15,-14.53 9.81,-4.15 19.62,-7.34 29.41,-9.55 9.78,-2.21 18.99,-3.32 27.62,-3.32zm363.84 339.6c-29.66,27.67 -60.39,49.12 -92.15,64.34 -31.77,15.23 -64.39,22.84 -97.82,22.84 -31.84,0 -58.39,-5.26 -79.68,-15.78 -21.28,-10.52 -37.64,-25.05 -49.05,-43.59 -11.41,-18.55 -18.09,-40.55 -20.06,-66.01 -1.97,-25.46 0.99,-53.14 8.89,-83.03 7.62,-28.23 18.82,-55.08 33.58,-80.54 14.76,-25.47 32.81,-47.88 54.17,-67.25 21.35,-19.38 45.46,-34.74 72.32,-46.09 26.85,-11.35 56.19,-17.02 88.01,-17.02 29.14,0 53.96,5.95 74.5,17.85 20.53,11.91 36.47,28.24 47.8,48.99 11.33,20.76 17.88,45.4 19.64,73.9 1.77,28.51 -1.56,59.37 -9.96,92.58l-308.3 0c-7.96,33.76 -4.85,61.44 9.32,83.03 14.17,21.58 39.87,32.38 77.09,32.38 18.34,0 35.9,-3.6 52.66,-10.8 16.76,-7.19 31.22,-15.22 43.39,-24.07 14.51,-9.97 27.92,-21.59 40.24,-34.88l35.41 53.15zm-101.14 -259.89c-15.63,0 -30.58,2.49 -44.85,7.47 -14.26,4.98 -27.32,11.77 -39.17,20.34 -11.86,8.58 -22.3,18.41 -31.3,29.48 -9.01,11.07 -16.03,22.42 -21.08,34.05l220.09 0c-0.25,-12.18 -2.36,-23.81 -6.3,-34.88 -3.93,-11.07 -9.57,-20.76 -16.91,-29.06 -7.34,-8.31 -16.01,-14.95 -26.03,-19.93 -10.01,-4.98 -21.49,-7.47 -34.45,-7.47zm288.74 37.36c-1.5,6.09 -0.65,11.9 2.53,17.44 3.19,5.53 7.77,10.79 13.73,15.78 5.97,4.98 13.17,9.82 21.62,14.53 8.44,4.7 16.84,9.54 25.24,14.53 12.45,6.64 25.35,13.83 38.71,21.59 13.37,7.74 25.02,16.87 34.99,27.4 9.96,10.51 17.14,22.41 21.54,35.7 4.41,13.28 4.42,28.78 0.04,46.5 -9.12,34.31 -29.28,62.41 -60.46,84.27 -31.19,21.87 -69.44,32.79 -114.75,32.79 -23.2,0 -43.41,-2.76 -60.61,-8.3 -17.21,-5.54 -31.48,-11.76 -42.82,-18.67 -11.32,-6.92 -19.77,-13.3 -25.34,-19.11 -5.56,-5.81 -8.31,-8.99 -8.22,-9.54l43.72 -57.29c5.95,3.31 13.19,7.05 21.71,11.2 8.53,4.16 17.75,8.17 27.67,12.05 9.92,3.87 20.32,7.19 31.22,9.96 10.89,2.77 21.47,4.15 31.71,4.15 17.27,0 32.37,-3.46 45.32,-10.38 12.95,-6.92 21.31,-17.3 25.08,-31.13 2.18,-10.53 -1.93,-19.66 -12.33,-27.4 -10.38,-7.76 -23.03,-15.78 -37.92,-24.09 -0.45,-0.55 -0.95,-0.83 -1.49,-0.83 -1.07,0 -1.57,-0.27 -1.48,-0.82l-12.6 -7.48 -0.12 0.83c-12,-6.09 -24.05,-12.73 -36.14,-19.93 -12.1,-7.19 -22.46,-16.05 -31.07,-26.57 -8.61,-10.51 -14.49,-22.97 -17.65,-37.36 -3.15,-14.39 -2.02,-32.1 3.43,-53.14 8.4,-33.21 26.75,-60.06 55.03,-80.54 28.27,-20.48 63.44,-30.72 105.52,-30.72 17.79,0 33.68,1.94 47.65,5.81 13.96,3.88 25.99,8.03 36.09,12.46 11.54,5.53 21.42,11.34 29.65,17.44l-48.8 63.93c-8.4,-4.98 -20.21,-10.52 -35.45,-16.61 -15.23,-6.09 -31.48,-9.13 -48.74,-9.13 -17.26,0 -31.91,4.01 -43.96,12.03 -12.04,8.04 -19.45,17.58 -22.25,28.65zm534.18 160.25c-3.86,14.4 -6.77,26.99 -8.71,37.78 -1.95,10.79 -2.78,18.68 -2.48,23.66 1.48,4.43 3.81,8.45 7.03,12.04 3.22,3.6 4.86,5.13 4.95,4.57l8.1 0c-0.97,2.77 -2.56,7.75 -4.76,14.94 -2.19,7.2 -4.44,14.67 -6.72,22.43 -3.09,9.4 -6.26,19.37 -9.52,29.88 -25.88,0 -44.96,-4.84 -57.21,-14.53 -12.25,-9.68 -18.66,-24.76 -19.25,-45.24 -7.59,7.19 -16.42,14.53 -26.49,22 -10.06,7.47 -21.34,14.11 -33.85,19.93 -12.5,5.8 -26.32,10.51 -41.44,14.11 -15.13,3.6 -31.32,5.4 -48.58,5.4 -19.43,0 -37.69,-2.22 -54.8,-6.64 -17.12,-4.43 -31.39,-11.49 -42.84,-21.18 -11.43,-9.68 -19.33,-22.14 -23.7,-37.36 -4.38,-15.23 -3.81,-33.63 1.71,-55.22 7.18,-28.78 19.5,-53.28 36.94,-73.48 17.44,-20.2 37.27,-36.67 59.48,-49.41 22.21,-12.72 45.88,-21.86 71.03,-27.4 25.13,-5.53 49.03,-8.3 71.69,-8.3 12.94,0 25.56,0.42 37.83,1.25 12.28,0.83 25.21,2.63 38.81,5.4 1.99,-12.73 1.39,-23.67 -1.77,-32.8 -3.16,-9.13 -7.93,-16.61 -14.31,-22.42 -6.38,-5.81 -14.07,-10.1 -23.08,-12.87 -9,-2.77 -18.64,-4.15 -28.89,-4.15 -18.34,0 -39.23,5.12 -62.68,15.36 -23.44,10.24 -47.18,25.05 -71.24,44.42l-14.09 -29.06 -3.56 -8.3c-0.46,-0.56 -0.86,-0.56 -1.22,0 -0.34,0.55 -0.73,0.41 -1.14,-0.42 -0.41,-0.83 -1.13,-3.18 -2.14,-7.06 -1.02,-3.87 -2.41,-10.51 -4.18,-19.92 31.67,-23.25 63.21,-40.41 94.6,-51.49 31.4,-11.06 60.31,-16.59 86.75,-16.59 29.67,0 53.98,4 72.97,12.03 18.97,8.02 33.03,19.1 42.16,33.21 9.13,14.12 14.03,31.14 14.71,51.07 0.67,19.93 -1.93,41.79 -7.79,65.59 -2.46,8.86 -5.01,17.44 -7.65,25.74 -2.64,8.31 -5.19,16.88 -7.65,25.74 -2.46,8.85 -5.28,18.27 -8.44,28.23 -3.18,9.96 -6.03,19.65 -8.58,29.06zm-220.66 76.39c24.82,0 46.56,-4.57 65.24,-13.7 18.69,-9.14 34.42,-20.07 47.2,-32.8 12.77,-12.73 22.62,-25.74 29.54,-39.02 6.92,-13.29 11.61,-24.36 14.07,-33.21l3.43 -11.63c-8.92,-1.66 -19.35,-3.04 -31.31,-4.15 -11.97,-1.11 -23.08,-1.66 -33.33,-1.66 -14.57,0 -30,1.24 -46.3,3.73 -16.3,2.5 -31.54,6.79 -45.7,12.88 -14.16,6.08 -26.77,14.25 -37.8,24.49 -11.04,10.24 -18.53,22.83 -22.48,37.78 -1.3,4.98 -1.92,10.66 -1.84,17.02 0.09,6.37 1.82,12.59 5.18,18.68 3.37,6.09 9.32,11.21 17.84,15.36 8.53,4.15 20.61,6.23 36.26,6.23zm529.26 -353.71c21.04,0 39.65,3.46 55.84,10.38 16.19,6.92 30.75,17.29 43.71,31.13l-60.62 72.24c-7.53,-10.52 -16.15,-19.23 -25.86,-26.15 -9.71,-6.92 -20.78,-10.38 -33.18,-10.38 -16.19,0 -31.29,3.46 -45.32,10.38 -14.02,6.92 -26.66,16.19 -37.91,27.81 -11.25,11.63 -21.05,25.19 -29.4,40.69 -8.34,15.49 -14.66,31.82 -18.96,48.99l-55.72 217.53 -77.69 0 106.74 -415.15 77.68 0 -9.05 37.37c7.41,-6.09 15.61,-11.91 24.56,-17.44 8.95,-5.54 18.34,-10.38 28.16,-14.53 9.81,-4.15 19.62,-7.34 29.4,-9.55 9.79,-2.21 18.99,-3.32 27.62,-3.32zm113.07 6.65l77.68 0 -106.74 415.15 -77.68 0 106.74 -415.15zm110.02 -124.55l-20.12 77.21 -77.68 0 20.12 -77.21 77.68 0zm292.88 395.22c-3.87,14.4 -6.77,26.99 -8.72,37.78 -1.95,10.79 -2.77,18.68 -2.47,23.66 1.47,4.43 3.8,8.45 7.03,12.04 3.21,3.6 4.86,5.13 4.95,4.57l8.08 0c-0.96,2.77 -2.55,7.75 -4.75,14.94 -2.2,7.2 -4.44,14.67 -6.72,22.43 -3.09,9.4 -6.26,19.37 -9.52,29.88 -25.89,0 -44.96,-4.84 -57.2,-14.53 -12.25,-9.68 -18.67,-24.76 -19.26,-45.24 -7.6,7.19 -16.42,14.53 -26.49,22 -10.06,7.47 -21.34,14.11 -33.85,19.93 -12.5,5.8 -26.32,10.51 -41.44,14.11 -15.13,3.6 -31.32,5.4 -48.58,5.4 -19.42,0 -37.69,-2.22 -54.8,-6.64 -17.12,-4.43 -31.39,-11.49 -42.83,-21.18 -11.44,-9.68 -19.34,-22.14 -23.72,-37.36 -4.37,-15.23 -3.79,-33.63 1.72,-55.22 7.18,-28.78 19.5,-53.28 36.94,-73.48 17.44,-20.2 37.26,-36.67 59.48,-49.41 22.21,-12.72 45.89,-21.86 71.03,-27.4 25.13,-5.53 49.03,-8.3 71.69,-8.3 12.94,0 25.56,0.42 37.83,1.25 12.28,0.83 25.22,2.63 38.82,5.4 1.98,-12.73 1.39,-23.67 -1.78,-32.8 -3.16,-9.13 -7.93,-16.61 -14.3,-22.42 -6.39,-5.81 -14.08,-10.1 -23.09,-12.87 -9,-2.77 -18.64,-4.15 -28.88,-4.15 -18.34,0 -39.24,5.12 -62.68,15.36 -23.44,10.24 -47.19,25.05 -71.26,44.42l-14.08 -29.06 -3.55 -8.3c-0.46,-0.56 -0.87,-0.56 -1.22,0 -0.36,0.55 -0.74,0.41 -1.15,-0.42 -0.41,-0.83 -1.12,-3.18 -2.14,-7.06 -1.01,-3.87 -2.41,-10.51 -4.17,-19.92 31.67,-23.25 63.2,-40.41 94.59,-51.49 31.4,-11.06 60.32,-16.59 86.74,-16.59 29.68,0 54,4 72.98,12.03 18.98,8.02 33.04,19.1 42.16,33.21 9.14,14.12 14.04,31.14 14.7,51.07 0.68,19.93 -1.91,41.79 -7.77,65.59 -2.47,8.86 -5.02,17.44 -7.66,25.74 -2.64,8.31 -5.19,16.88 -7.65,25.74 -2.46,8.85 -5.27,18.27 -8.44,28.23 -3.17,9.96 -6.03,19.65 -8.57,29.06zm-220.68 76.39c24.82,0 46.58,-4.57 65.26,-13.7 18.68,-9.14 34.42,-20.07 47.19,-32.8 12.77,-12.73 22.61,-25.74 29.54,-39.02 6.92,-13.29 11.61,-24.36 14.07,-33.21l3.43 -11.63c-8.91,-1.66 -19.35,-3.04 -31.31,-4.15 -11.96,-1.11 -23.07,-1.66 -33.33,-1.66 -14.56,0 -30,1.24 -46.3,3.73 -16.3,2.5 -31.53,6.79 -45.69,12.88 -14.17,6.08 -26.77,14.25 -37.81,24.49 -11.04,10.24 -18.52,22.83 -22.47,37.78 -1.31,4.98 -1.93,10.66 -1.84,17.02 0.09,6.37 1.82,12.59 5.18,18.68 3.37,6.09 9.31,11.21 17.84,15.36 8.52,4.15 20.61,6.23 36.24,6.23zm363.7 -64.76c-1.31,4.98 -1.72,10.24 -1.24,15.77 0.49,5.54 2.15,10.52 4.96,14.95 2.82,4.43 7.18,8.43 13.09,12.04 5.92,3.59 13.68,5.67 23.31,6.23l-20.5 79.71c-23.03,-1.12 -41.87,-5.68 -56.54,-13.71 -14.66,-8.02 -25.77,-18.12 -33.3,-30.3 -7.55,-12.18 -11.92,-25.74 -13.1,-40.69 -1.17,-14.95 0.17,-29.61 4.03,-44l125.94 -486.56 79.3 0 -125.95 486.56z"/>
   <path class="fil2 str1" d="M14042.02 6754.23c-4580.89,-427.69 -7990.54,332.08 -12482.08,646.03 -202.58,7.46 -825.23,4.42 -955.54,51.88 175.76,187.77 366.43,380.61 553.57,574.25 103.54,107.14 182.2,193.66 279.67,287.27 126.23,121.25 151.09,57.12 331.01,1.98 1434.81,-439.79 3226.8,-602.87 4739.57,-779.6 2199.13,-256.91 4904.71,-649.89 7198.54,-646.13 335.26,-135.68 -1075.89,-234.01 335.26,-135.68z"/>
   <path class="fil3 str2" d="M1696.41 7149.36l463.7 -1702.55 -265.31 0c-220.07,1.75 -146.56,-502.86 124.58,-475.23l270.69 0 123.78 -388.47c22.44,-70.44 52.22,-147.89 92.29,-230.69 104.22,-215.28 252.38,-387.71 442.93,-516.76 190.59,-129.05 382.97,-193.79 576.75,-193.79 227.62,0 407.57,89.21 539.83,267.61 200.57,221.37 18.8,534.69 -115.35,438.32 -21.53,-43.05 -48.91,-81.35 -79.21,-115.35 -70.93,-79.54 -151.72,-133.01 -244.54,-143.02 -246.22,-26.61 -463.27,134.74 -573.65,492.92l-119.97 389.23 350.67 0c233.68,43.89 97.84,465.38 -125.34,475.23l-362.2 0 -465.24 1701.78c-27.69,55.37 -62.29,129.2 -105.36,222.25 -76.89,150.71 -189.93,270.67 -339.12,359.89 -148.42,89.19 -301.44,133.8 -458.32,133.8 -193.01,0 -340.66,-69.21 -442.16,-207.62 -217.9,-234.25 -77.78,-578.18 110.72,-373.74 67.69,104.58 152.27,156.88 253.78,156.88 156.86,0 272.21,-96.9 346.05,-290.69z"/>
   <path class="fil3 str3" d="M3107.56 6300.56c-32.77,131.45 -45.06,190.74 -46.97,247.44 -3.2,95.38 27.61,175.28 128.15,175.28 43.8,0 178.53,-20.64 292.62,-193.33l-2.59 0c57.34,-95.39 127.25,-335.08 170.01,-533.56 33.37,-149.49 49.65,-250.03 54.37,-314.48 5.1,-74.74 69.29,-144.34 165.29,-162.38 2.55,0 12.89,0 18.13,-2.56l-5.32 5.15c13.12,-7.75 36.49,-12.9 49.38,-12.9 80.25,-10.3 165.98,46.4 153.78,103.1 -40.43,128.89 -84.71,296.43 -133.92,533.56 -76.4,355.72 -105.4,528.41 -108.61,623.8l-0.69 20.6c0.26,69.6 -84.14,126.3 -176.93,126.3 -97.95,0 -180.87,-64.41 -173.17,-139.19l1.22 -36.06c-32.42,43.8 -67.13,79.9 -114.66,113.4 -118.59,77.34 -278.85,90.23 -320.1,90.23 -195.88,0 -368.05,-92.79 -361.73,-280.97 1.21,-36.1 7.58,-72.19 26.27,-167.54l151.81 -683.09c11.98,-48.96 18.52,-90.2 22.11,-121.14 7.41,-67.01 48.69,-144.35 149.84,-162.39l-5.19 0c5.27,-2.56 15.58,-2.56 25.88,-2.56 2.59,0 10.39,-2.59 12.98,-2.59l-5.15 0c7.79,-2.56 20.78,-5.15 33.67,-5.15 87.99,-10.31 176.11,51.54 160.96,118.58 -29.22,103.1 -43.76,152.05 -64.75,239.69 -2.99,12.9 -8.75,30.95 -11.86,46.4l-84.83 376.36zm1139.17 -302.45c21.55,-105.26 46.52,-234.14 49.79,-331.65l0.52 -15.49c-0.6,-59.26 37.75,-126.29 128.33,-136.6 25.84,-2.59 46.57,-5.15 72.5,-10.3 2.59,0 10.39,-2.59 12.98,-2.59 82.84,-10.3 168.66,43.84 158.84,105.69 -6.19,30.94 8.52,-23.2 -6.54,41.24 13.42,-15.45 32.07,-33.5 50.6,-48.99 105.82,-79.89 244.06,-128.85 393.55,-128.85 162.39,0 379.61,56.7 372.35,272.79 -1.56,46.4 -11.21,103.1 -35.79,221.24 -12.15,54.11 -24.71,121.15 -36.99,180 -12.38,61.85 -27.18,118.55 -39.47,177.84 -24.35,110.41 -67.45,318.79 -79.47,447.24 -7.75,77.3 -99.89,134.04 -200.4,134.04l-23.19 0c-85.18,2.55 -160.52,-56.74 -140.31,-121.15 28.55,-82.09 61.05,-205.79 108.01,-452.82l36.64 -169.69c27.43,-125.86 46.26,-226.4 48.76,-300.71 4.15,-123.73 -32.78,-174.84 -146.18,-174.84 -97.98,0 -219.2,79.46 -297.06,172.25 -83.35,102.69 -120.69,292.99 -148.56,432.18l-56.5 300.74c-15.58,79.9 -22.64,136.6 -26.87,185.15 -7.66,74.75 -102.18,126.29 -200.13,126.29l-20.6 0c-87.73,2.6 -160.4,-59.29 -145.55,-118.55 28.9,-92.39 50.15,-187.74 72.08,-303.33l98.66 -481.13zm1638.17 418.44c-5.97,177.84 51.54,306.73 162.39,306.73 72.15,0 182.34,-56.7 278.6,-237.13 71.45,-131.48 107.64,-288.72 225.68,-809.39 -48.56,-12.89 -89.46,-23.2 -135.86,-23.2 -407.23,0 -525.35,600.6 -530.81,762.99zm872.63 -118.58c-3.38,23.19 -6.63,43.8 -12.56,67 -27.79,136.63 -61.68,301.61 -65.4,412.42 -4.93,69.59 -71.54,134.04 -169.58,136.63 -97.94,0 -186.1,-61.85 -173.16,-139.19 3.42,-25.79 0.61,-18.05 15.89,-90.24 -99.77,131.48 -220.09,260.37 -410.83,260.37 -231.98,0 -428.03,-149.53 -418.16,-443.36 2.34,-69.59 50.47,-427.87 292.33,-721.74 150.23,-175.29 383.73,-296.43 631.16,-296.43 59.29,0 105.43,7.75 143.82,15.49 27.27,-121.14 40,-193.33 36.67,-247.47 -0.31,-67 53.58,-136.6 146.8,-149.49 7.84,-2.6 25.93,-5.16 36.36,-7.75 101.11,-18.05 202.77,25.79 184.85,97.94 -11.25,28.39 -15.06,64.45 -24.24,108.29 -6.02,25.75 -12.12,54.14 -18.44,87.64 -3.16,18.05 -9,38.65 -12.29,59.29 -5.93,23.2 -11.95,48.96 -18.05,77.31l-165.17 773.29zm1206.28 -613.46c-45.88,-15.49 -101.97,-33.54 -163.82,-33.54 -391.81,0 -513.44,551.61 -520.54,762.99 -5.89,175.28 38.85,301.58 167.7,301.58 74.75,0 171.52,-41.25 263.5,-170.14 72.79,-95.35 121.62,-244.84 174.12,-502.62l79.04 -358.27zm201.56 -167.54c93.74,-28.39 173.77,43.8 158.57,113.4 -20.9,85.04 -53.67,216.53 -105.48,453.66l-54.88 252.59c-43.2,211.38 -69.78,389.22 -72.29,463.96 -2.16,64.45 -88.77,110.85 -176.5,113.44 -90.32,2.56 -165.84,-51.55 -158.49,-115.99 4.03,-43.84 13.77,-103.1 25.89,-157.24 -110.54,144.34 -252.42,301.58 -453.5,301.58 -213.93,0 -420.6,-139.19 -410.73,-433.02 3.99,-118.59 89.35,-587.71 475.72,-886.73 63.41,-46.4 216.19,-144.34 455.92,-144.34 121.14,0 200.21,25.79 274,54.14l41.77 -15.45zm1299.76 -20.64c79.33,18.04 102.57,92.79 80.23,144.34 -16.87,41.24 -63.79,56.7 -120.49,56.7 -33.5,0 -61.67,-5.15 -81.97,-15.46l2.6 0c-30.6,-10.3 -63.84,-18.04 -102.49,-18.04 -314.48,0 -511.67,345.41 -523.45,695.95 -4.24,126.33 11.16,280.97 124.73,353.16 65.57,43.8 129.49,59.26 191.34,59.26 56.7,0 106.04,-10.31 155.6,-28.35 75.47,-20.61 127.85,30.94 108.07,82.49 -25.19,59.29 -103.97,103.09 -189.49,115.99 -38.82,5.15 -87.9,7.74 -134.3,7.74 -407.26,0 -647.25,-221.68 -635.47,-572.25 13.51,-402.08 324.09,-899.58 947.85,-899.58 77.34,0 133.78,7.74 177.24,18.05zm619.95 -345.38c-2.86,85.04 -84.62,216.49 -234.11,216.49 -87.64,0 -176.49,-41.25 -173.29,-136.6 2.69,-79.89 79.29,-211.38 239.13,-211.38 90.19,0 171.21,43.84 168.27,131.49zm-244.21 1130.25c-55.02,256.9 -80.74,408.98 -91.41,496.19 -7.67,74.78 -102.19,126.33 -200.14,126.33l-20.64 0c-82.54,2.55 -144.56,-69.6 -134.69,-134.04 0.09,-2.6 2.86,-7.75 3.03,-12.9 14.7,-53.7 35.17,-125.89 56.76,-231.14l52.27 -252.15c73.27,-339.83 102.09,-506.93 102.63,-599.32 -0.51,-61.85 30.35,-136.6 128.5,-141.75 36.23,-5.15 62.2,-10.3 90.72,-15.45 88.25,-18.05 160.83,46.39 153.43,113.4 -2.94,10.3 -6.11,28.35 -6.54,41.24 -11.86,46.4 -26.82,107.81 -45.17,192.89l-88.75 416.7zm968.68 -906.02c72.19,0 171,-25.79 257.69,-74.74 126.86,-92.8 148.19,-113.44 162.61,-159.83 20.39,-69.6 -37.17,-121.15 -122.22,-121.15 -126.3,0 -164.21,54.15 -184.68,126.3 -14.72,54.14 -57.78,108.28 -123.75,154.68 -39.72,30.94 -46.35,74.74 10.35,74.74zm184.41 342.83c-29.99,-28.35 -80.24,-67.04 -154.99,-67.04 -368.61,0 -478.82,595.45 -485.57,796.49 -8.15,242.32 92.09,327.37 210.68,327.37 407.23,0 487.35,-695.95 491.51,-819.69 2.16,-64.44 3.29,-175.28 -61.63,-237.13zm297.47 -108.25c129.53,134 129.66,283.53 127.24,355.68 -13.51,402.12 -293.33,982.08 -883.59,982.08 -149.53,0 -295.05,-41.25 -392.55,-131.45 -59.86,-59.29 -154.03,-172.69 -146.41,-399.52 13.94,-415.01 307.44,-940.83 887.39,-940.83 183.03,0 325.9,43.81 407.92,134.04zm311.73 388.35c21.54,-105.26 46.52,-234.14 49.79,-331.65l0.52 -15.49c-0.6,-59.26 37.75,-126.29 128.33,-136.6 25.84,-2.59 46.57,-5.15 72.5,-10.3 2.59,0 10.39,-2.59 12.98,-2.59 82.84,-10.3 168.66,43.84 158.84,105.69 -6.19,30.94 8.52,-23.2 -6.54,41.24 13.42,-15.45 32.07,-33.5 50.6,-48.99 105.82,-79.89 244.06,-128.85 393.55,-128.85 162.39,0 379.61,56.7 372.35,272.79 -1.56,46.4 -11.21,103.1 -35.79,221.24 -12.15,54.11 -24.71,121.15 -36.99,180 -12.38,61.85 -27.18,118.55 -39.47,177.84 -24.35,110.41 -67.45,318.79 -79.48,447.24 -7.74,77.3 -99.89,134.04 -200.39,134.04l-23.2 0c-85.17,2.55 -160.51,-56.74 -140.3,-121.15 28.55,-82.09 61.05,-205.79 108,-452.82l36.65 -169.69c27.43,-125.86 46.26,-226.4 48.76,-300.71 4.15,-123.73 -32.78,-174.84 -146.18,-174.84 -97.98,0 -219.2,79.46 -297.06,172.25 -83.35,102.69 -120.69,292.99 -148.56,432.18l-56.5 300.74c-15.59,79.9 -22.64,136.6 -26.87,185.15 -7.66,74.75 -102.18,126.29 -200.13,126.29l-20.6 0c-87.73,2.6 -160.4,-59.29 -145.55,-118.55 28.9,-92.39 50.15,-187.74 72.08,-303.33l98.66 -481.13z"/>
   <path class="fil1 str4" d="M14046.3 5670.04c-47.63,-15.87 -105.83,-34.38 -169.33,-34.38 -402.15,0 -507.98,566.18 -507.98,783.14 0,179.9 50.27,309.54 182.56,309.54 76.72,0 174.62,-42.33 264.58,-174.61 71.43,-97.9 116.4,-251.35 161.38,-515.92l68.79 -367.77zm201.08 -171.97c95.24,-29.1 179.91,44.98 166.68,116.42 -18.52,87.31 -47.62,222.24 -92.6,465.65l-47.63 259.28c-37.04,216.95 -58.2,399.51 -58.2,476.23 0,66.14 -87.31,113.77 -177.27,116.41 -92.6,2.65 -171.97,-52.91 -166.68,-119.06 2.65,-44.97 10.59,-105.83 21.16,-161.38 -108.47,148.16 -248.69,309.54 -455.06,309.54 -219.59,0 -436.55,-142.86 -436.55,-444.48 0,-121.7 71.44,-603.22 457.72,-910.13 63.5,-47.62 216.95,-148.16 463,-148.16 124.35,0 206.37,26.45 283.1,55.56l42.33 -15.88zm589.18 672.02c-44.98,148.16 -84.66,378.34 -105.83,492.11 -7.93,15.87 -10.58,29.1 -10.58,52.92l-7.94 0c50.27,26.45 111.12,55.55 193.14,55.55 164.04,0 253.99,-92.6 301.61,-150.8 142.87,-171.97 187.85,-486.82 187.85,-645.56 0,-150.81 -50.27,-280.45 -174.62,-280.45 -140.22,0 -291.03,177.26 -383.63,476.23zm931.3 -272.51c0,269.87 -124.35,619.1 -333.37,825.47 -142.86,142.87 -338.65,232.83 -560.89,232.83 -50.27,0 -113.77,0 -193.14,-15.88 -7.94,52.92 -18.52,97.89 -29.11,150.81 -10.57,55.56 -21.16,108.47 -31.74,161.39 -15.87,87.31 -23.81,161.39 -29.1,209.01 -7.94,84.66 -84.67,150.81 -198.43,145.52l-18.53 0c-87.3,0 -171.97,-58.21 -158.74,-121.7 21.17,-79.38 42.34,-182.56 63.5,-283.1 5.29,-29.11 13.23,-58.21 15.87,-87.31 0,-2.64 2.65,-13.23 7.94,-26.46 2.64,-7.94 2.64,-18.52 5.29,-26.45l-2.65 2.64 166.69 -859.86c10.58,-55.57 15.87,-103.18 23.81,-148.17 5.29,-37.03 13.23,-74.07 21.16,-121.7 7.94,-15.87 7.94,-31.75 7.94,-39.69 21.16,-108.47 23.82,-195.78 21.16,-251.34 2.66,-50.27 34.4,-119.06 116.42,-129.64 34.4,-2.65 66.14,-7.94 92.6,-13.23 92.6,-15.88 179.92,39.69 174.62,108.48 -7.93,37.04 -15.87,71.43 -23.81,105.83 42.33,-60.86 92.6,-121.71 153.45,-166.69 31.75,-23.81 129.65,-89.95 309.55,-89.95 243.41,0 399.51,153.45 399.51,439.19zm949 -193.14c-31.75,-29.1 -84.66,-68.78 -161.39,-68.78 -378.34,0 -470.94,611.16 -470.94,817.52 0,248.71 105.83,336.01 227.53,336.01 418.03,0 476.24,-714.34 476.24,-841.34 0,-66.15 -2.65,-179.91 -71.44,-243.41zm301.61 -111.12c137.59,137.58 142.88,291.03 142.88,365.11 0,412.74 -267.22,1008.03 -873.1,1008.03 -153.45,0 -304.26,-42.33 -407.44,-134.93 -63.5,-60.86 -164.04,-177.27 -164.04,-410.09 0,-425.96 283.1,-965.7 878.38,-965.7 187.86,0 336.02,44.98 423.32,137.58zm541.57 1346.68c-84.67,-21.17 -161.39,-66.14 -166.68,-137.58 -26.46,-303.37 -47.62,-443.6 -108.48,-784.02 -34.39,-200.64 -63.5,-317.04 -82.01,-390.69l0 2.65c-21.17,-71.43 55.55,-132.29 142.87,-129.64l55.56 0c111.11,-2.65 193.13,68.79 201.07,150.81 2.65,55.12 10.59,142.43 26.46,253.11 31.74,242.97 63.5,440.95 97.89,689.21 18.52,-39.68 34.4,-81.58 50.27,-123.91 182.56,-430.37 272.51,-673.34 317.49,-823.7 26.46,-89.96 119.06,-156.1 240.76,-148.17l18.52 0c79.37,0 140.23,68.8 108.48,121.71 -7.94,13.23 -13.23,23.81 -21.17,39.69 -63.5,118.61 -132.29,274.27 -177.26,380.1l-428.62 940.12c-148.16,280.45 -317.48,566.18 -714.34,627.04 -92.6,0 -182.56,-58.21 -166.69,-119.06 29.11,-84.66 121.71,-127 216.96,-132.29 153.45,-10.58 267.22,-187.84 320.13,-288.39l68.79 -126.99zm1745.38 -1235.56c-31.76,-29.1 -84.67,-68.78 -161.39,-68.78 -378.35,0 -470.95,611.16 -470.95,817.52 0,248.71 105.83,336.01 227.53,336.01 418.04,0 476.24,-714.34 476.24,-841.34 0,-66.15 -2.65,-179.91 -71.43,-243.41zm301.61 -111.12c137.58,137.58 142.87,291.03 142.87,365.11 0,412.74 -267.22,1008.03 -873.09,1008.03 -153.46,0 -304.26,-42.33 -407.45,-134.93 -63.5,-60.86 -164.03,-177.27 -164.03,-410.09 0,-425.96 283.09,-965.7 878.38,-965.7 187.85,0 336.01,44.98 423.32,137.58z"/>
   <path class="fil2" d="M14563.8 2205.5c-348.93,-449.82 -894.15,-739.58 -1507.45,-739.58 -282.78,0 -550.75,62.02 -792.11,172.31 39.34,-2.38 78.98,-4.02 118.99,-4.02 508,0 969.24,198.99 1311.02,522.86 84.95,-11.6 171.48,-18.03 259.57,-18.03 214.39,0 420.26,35.85 612.64,101.09 10.52,3.57 21.13,6.99 31.56,10.7 -11.23,-15.28 -22.58,-30.37 -34.22,-45.33z"/>
   <path class="fil4" d="M14598.02 2250.83c-10.43,-3.71 -21.04,-7.13 -31.56,-10.7 -192.38,-65.24 -398.25,-101.09 -612.64,-101.09 -88.09,0 -174.62,6.43 -259.57,18.03 328.35,311.05 546.03,737.39 588.14,1214.43 5.03,56.01 7.96,112.56 7.96,169.83 0,770.66 -457.3,1434 -1115.08,1734.81 997.87,-61.4 1788.24,-889.75 1788.24,-1903.07 0,-419.59 -135.87,-807.32 -365.49,-1122.24z"/>
   <path class="fil2 str0" d="M11156.18 3530.92c62.14,757.98 567.03,1390.28 1255.98,1637.52 -206.98,-283.83 -337.33,-626.86 -361.13,-999.03 -357.91,-121.36 -667.95,-345.92 -894.85,-638.49z"/>
   <path class="fil2" d="M14290.35 3541.33c0,-57.27 -2.93,-113.82 -7.96,-169.83 -336.81,539.7 -935.64,899.04 -1618.73,899.04 -214.38,0 -420.25,-35.85 -612.63,-101.13 23.8,372.17 154.15,715.2 361.13,999.03 201.22,72.2 418.02,111.82 644.19,111.82 39.94,0 79.5,-1.67 118.92,-4.12 657.78,-300.81 1115.08,-964.15 1115.08,-1734.81z"/>
   <path class="fil4" d="M12051.03 4169.41c-2.62,-40.78 -4.36,-81.73 -4.36,-123.22 0,-965.26 717.15,-1762.47 1647.58,-1889.12 -341.78,-323.87 -803.02,-522.86 -1311.02,-522.86 -40.01,0 -79.65,1.64 -118.99,4.02 -657.78,300.85 -1115.08,964.22 -1115.08,1734.84 0,53.25 2.72,105.79 7.02,157.85 226.9,292.57 536.94,517.13 894.85,638.49z"/>
   <path class="fil4 str5" d="M12866.97 976.58c-168.14,-12.5 -319.48,115.2 -338,285.23 -18.53,170.04 102.74,318.05 270.88,330.5 168.2,12.5 319.48,-115.2 338.01,-285.23 18.53,-170.04 -102.74,-318.05 -270.89,-330.5z"/>
   <path class="fil5 str5" d="M13420.65 4172.79l-297.47 0c-142.86,0 -255.23,97.55 -249.69,216.76l0 0c5.59,119.26 127.05,216.9 270,216.9l494.6 0c93.55,175.02 173.35,312.56 217.4,393.09 274.05,424.21 572.42,17.07 446.36,-169.48 -238.92,-367.28 -1200.47,-1576.22 -729.6,-2883.16l44.9 -114.8c19.37,-45.66 40.44,-91.33 63.5,-137.14l-13.28 8.34c134.84,-346.52 235.27,-610.89 268.02,-712.14 166.5,-317.73 -179.52,-430.96 -345.67,-201.31 -237.61,328.36 -482.17,1444.57 -893.45,1107.96 -405.29,-325.75 -726.27,-1398.05 -1147.55,-1131.07 -107.6,209.61 -93.55,224.74 640.29,1142.29 542.21,680.92 411.92,1233.21 128.54,1909.72 -182.31,435.15 -396.87,892.91 -441.86,1076.17 -76.02,309.41 396.6,462.71 524.5,9.05 35.99,-98.09 342.87,-864.49 673.85,-1696.96 75.76,332.42 209.11,670.24 346.61,965.78z"/>
   <path class="fil0 str6" d="M12866.97 976.58c-168.14,-12.5 -319.48,115.25 -338,285.29 -18.53,169.98 102.74,317.99 270.88,330.49 168.2,12.45 319.48,-115.25 338.01,-285.28 18.53,-170.04 -102.69,-317.99 -270.89,-330.5z"/>
   <path class="fil2 str1" d="M11548.72 766.74c421.28,-266.98 742.26,805.32 1147.55,1131.07 411.19,336.61 655.84,-779.6 893.45,-1107.96 166.15,-229.65 512.17,-116.42 345.67,201.31 -38.56,119.22 -170.92,464.61 -342.92,904.09 -361.88,1281.27 479.51,2581.54 709.38,2934.86 126.06,186.5 -172.26,593.59 -446.41,169.43 -54.76,-100.16 -164.83,-288.51 -287.88,-527.48 -30.71,18.02 -68.23,28.56 -109.08,28.56l-380.92 0c-108.09,0 -199.88,-73.82 -204.11,-163.99l0 0c-4.19,-90.12 80.75,-163.84 188.75,-163.84l358.5 0c-137.46,-295.54 -270.95,-633.45 -346.66,-965.92 -331.02,832.61 -637.91,1599.01 -673.85,1697.1 -127.9,453.66 -600.52,300.36 -524.46,-9.05 44.95,-183.3 259.51,-641.02 441.87,-1076.17 283.33,-676.46 413.62,-1228.8 -128.59,-1909.72 -733.84,-917.55 -747.93,-932.68 -640.29,-1142.29z"/>
  </g>
  <path class="fil6" d="M11918.59 14825.89c9007.9,-2702.09 13742.43,-8395.62 15635.43,-11266.71 -771.37,-3529.35 -771.37,-3529.35 -771.37,-3529.35 -4493.41,10886.69 -14864.06,14796.06 -14864.06,14796.06l0 0z"/>
  <path class="fil7" d="M22438.44 6704.6c-3957.46,4354.33 -10721.89,8537.86 -21971.11,8092.14 445.48,2038.26 445.48,2038.26 445.48,2038.26 13562.6,-32.68 21285.83,-9819.55 21525.63,-10130.4l0 0z"/>
 </g>
</svg>
