<?xml version="1.0" encoding="UTF-8"?>
<!DOCTYPE svg PUBLIC "-//W3C//DTD SVG 1.1//EN" "http://www.w3.org/Graphics/SVG/1.1/DTD/svg11.dtd">
<!-- Creator: CorelDRAW 2017 -->
<svg xmlns="http://www.w3.org/2000/svg" xml:space="preserve" width="279.4mm" height="120.4mm" version="1.1" style="shape-rendering:geometricPrecision; text-rendering:geometricPrecision; image-rendering:optimizeQuality; fill-rule:evenodd; clip-rule:evenodd"
viewBox="0 0 27940 12040"
 xmlns:xlink="http://www.w3.org/1999/xlink">
 <defs>
  <style type="text/css">
   <![CDATA[
    .str6 {stroke:#F58634;stroke-width:20;stroke-miterlimit:22.9256}
    .str1 {stroke:#80622B;stroke-width:20;stroke-miterlimit:22.9256}
    .str2 {stroke:#F58634;stroke-width:10;stroke-miterlimit:22.9256}
    .str0 {stroke:#F58634;stroke-width:7.62;stroke-miterlimit:22.9256}
    .str3 {stroke:#F58634;stroke-width:10;stroke-linejoin:round;stroke-miterlimit:22.9256}
    .str5 {stroke:#FEFEFE;stroke-width:75;stroke-linecap:round;stroke-linejoin:round;stroke-miterlimit:22.9256}
    .str4 {stroke:#FEFEFE;stroke-width:20;stroke-linecap:round;stroke-linejoin:round;stroke-miterlimit:22.9256}
    .fil4 {fill:#FEFEFE}
    .fil0 {fill:#F58634}
    .fil2 {fill:#80622B}
    .fil5 {fill:#614B26}
    .fil3 {fill:#FEFEFE;fill-rule:nonzero}
    .fil1 {fill:#80622B;fill-rule:nonzero}
   ]]>
  </style>
 </defs>
 <g id="Capa_x0020_1">
  <metadata id="CorelCorpID_0Corel-Layer"/>
  <g id="_2141163677376">
   <path class="fil0 str0" d="M18175.52 9620.54c1150.12,-392.69 8481.3,-236.78 9461.55,105.36 -131.18,188.66 -68.01,93.36 -207.86,288.32 -77.37,107.87 -136.03,194.63 -209.05,289.36 -94.59,122.71 -115.6,64.08 -256.62,24.54 -1124.5,-315.39 -2518.44,-346.04 -3696.26,-408.65 -1712.2,-91 -3230.16,-382.86 -5008.7,-222.21 -440.13,-153.57 49.86,-176.99 -83.06,-76.72z"/>
   <path class="fil1" d="M9411.31 11330.1c-5.58,20.77 -9.77,38.94 -12.58,54.51 -2.81,15.58 -4.01,26.96 -3.57,34.15 2.13,6.39 5.5,12.19 10.15,17.37 4.63,5.19 7.01,7.4 7.14,6.59l11.68 0c-1.4,4 -3.69,11.18 -6.86,21.57 -3.18,10.39 -6.41,21.16 -9.71,32.35 -4.46,13.58 -9.03,27.96 -13.73,43.14 -37.36,0 -64.88,-6.99 -82.56,-20.97 -17.67,-13.98 -26.93,-35.74 -27.78,-65.3 -10.95,10.38 -23.7,20.97 -38.22,31.75 -14.52,10.79 -30.8,20.37 -48.85,28.76 -18.04,8.38 -37.98,15.17 -59.8,20.36 -21.83,5.2 -45.2,7.79 -70.12,7.79 -28.02,0 -54.39,-3.2 -79.07,-9.58 -24.7,-6.39 -45.29,-16.57 -61.81,-30.55 -16.5,-13.98 -27.9,-31.96 -34.22,-53.92 -6.3,-21.97 -5.48,-48.53 2.49,-79.68 10.35,-41.54 28.13,-76.89 53.3,-106.04 25.16,-29.15 53.78,-52.92 85.83,-71.3 32.05,-18.36 66.22,-31.55 102.5,-39.54 36.26,-7.98 70.75,-11.98 103.45,-11.98 18.67,0 36.89,0.61 54.6,1.8 17.71,1.2 36.38,3.8 56,7.8 2.87,-18.38 2.01,-34.16 -2.56,-47.34 -4.56,-13.17 -11.44,-23.96 -20.64,-32.35 -9.2,-8.38 -20.31,-14.58 -33.31,-18.57 -12.99,-3.99 -26.9,-5.99 -41.69,-5.99 -26.46,0 -56.61,7.39 -90.44,22.17 -33.83,14.77 -68.1,36.14 -102.82,64.1l-20.33 -41.93 -5.13 -11.99c-0.66,-0.8 -1.24,-0.8 -1.76,0 -0.51,0.81 -1.06,0.6 -1.65,-0.59 -0.6,-1.21 -1.63,-4.6 -3.09,-10.2 -1.47,-5.59 -3.47,-15.17 -6.03,-28.75 45.71,-33.54 91.21,-58.31 136.52,-74.29 45.3,-15.96 87.02,-23.95 125.16,-23.95 42.82,0 77.92,5.78 105.31,17.36 27.39,11.58 47.68,27.56 60.84,47.93 13.19,20.37 20.25,44.94 21.23,73.69 0.98,28.76 -2.78,60.31 -11.23,94.65 -3.56,12.79 -7.23,25.17 -11.05,37.15 -3.81,11.99 -7.49,24.36 -11.04,37.14 -3.54,12.78 -7.61,26.37 -12.18,40.74 -4.58,14.38 -8.7,28.36 -12.37,41.94zm-318.43 110.22c35.81,0 67.19,-6.58 94.15,-19.76 26.97,-13.19 49.67,-28.96 68.1,-47.33 18.43,-18.37 32.64,-37.14 42.63,-56.31 9.98,-19.18 16.76,-35.16 20.31,-47.93l4.95 -16.78c-12.87,-2.39 -27.92,-4.38 -45.19,-5.99 -17.27,-1.6 -33.3,-2.39 -48.09,-2.39 -21.02,0 -43.3,1.79 -66.82,5.38 -23.51,3.61 -45.5,9.79 -65.94,18.59 -20.44,8.78 -38.63,20.56 -54.55,35.34 -15.92,14.78 -26.73,32.95 -32.43,54.51 -1.89,7.19 -2.79,15.38 -2.66,24.56 0.13,9.2 2.63,18.17 7.48,26.96 4.86,8.8 13.44,16.18 25.74,22.17 12.3,5.99 29.74,8.98 52.32,8.98zm772.38 -93.45c-1.89,7.19 -2.49,14.78 -1.79,22.76 0.7,7.99 3.09,15.18 7.15,21.57 4.07,6.39 10.37,12.18 18.9,17.38 8.53,5.19 19.74,8.18 33.63,8.98l-29.58 115.03c-33.24,-1.61 -60.43,-8.19 -81.59,-19.77 -21.16,-11.59 -37.18,-26.16 -48.07,-43.73 -10.89,-17.58 -17.18,-37.14 -18.89,-58.72 -1.69,-21.57 0.24,-42.73 5.81,-63.5l181.74 -702.12 114.44 0 -181.75 702.12zm619.15 -16.77c-5.56,20.77 -9.77,38.94 -12.57,54.51 -2.82,15.58 -4,26.96 -3.57,34.15 2.12,6.39 5.5,12.19 10.14,17.37 4.65,5.19 7.02,7.4 7.14,6.59l11.68 0c-1.39,4 -3.69,11.18 -6.86,21.57 -3.17,10.39 -6.4,21.16 -9.7,32.35 -4.45,13.58 -9.03,27.96 -13.73,43.14 -37.36,0 -64.88,-6.99 -82.56,-20.97 -17.66,-13.98 -26.93,-35.74 -27.78,-65.3 -10.96,10.38 -23.69,20.97 -38.22,31.75 -14.53,10.79 -30.81,20.37 -48.86,28.76 -18.04,8.38 -37.97,15.17 -59.8,20.36 -21.83,5.2 -45.19,7.79 -70.1,7.79 -28.04,0 -54.39,-3.2 -79.08,-9.58 -24.69,-6.39 -45.29,-16.57 -61.8,-30.55 -16.51,-13.98 -27.92,-31.96 -34.22,-53.92 -6.32,-21.97 -5.49,-48.53 2.47,-79.68 10.37,-41.54 28.13,-76.89 53.3,-106.04 25.17,-29.15 53.78,-52.92 85.83,-71.3 32.06,-18.36 66.23,-31.55 102.5,-39.54 36.28,-7.98 70.76,-11.98 103.46,-11.98 18.68,0 36.88,0.61 54.59,1.8 17.73,1.2 36.4,3.8 56.02,7.8 2.85,-18.38 2.01,-34.16 -2.56,-47.34 -4.56,-13.17 -11.45,-23.96 -20.65,-32.35 -9.21,-8.38 -20.31,-14.58 -33.32,-18.57 -12.99,-3.99 -26.89,-5.99 -41.67,-5.99 -26.48,0 -56.63,7.39 -90.45,22.17 -33.83,14.77 -68.1,36.14 -102.82,64.1l-20.33 -41.93 -5.14 -11.99c-0.65,-0.8 -1.23,-0.8 -1.75,0 -0.5,0.81 -1.07,0.6 -1.65,-0.59 -0.6,-1.21 -1.62,-4.6 -3.09,-10.2 -1.46,-5.59 -3.48,-15.17 -6.02,-28.75 45.7,-33.54 91.2,-58.31 136.5,-74.29 45.31,-15.96 87.04,-23.95 125.18,-23.95 42.82,0 77.91,5.78 105.3,17.36 27.39,11.58 47.67,27.56 60.85,47.93 13.17,20.37 20.25,44.94 21.21,73.69 0.98,28.76 -2.76,60.31 -11.23,94.65 -3.55,12.79 -7.23,25.17 -11.04,37.15 -3.81,11.99 -7.5,24.36 -11.04,37.14 -3.54,12.78 -7.6,26.37 -12.18,40.74 -4.58,14.38 -8.71,28.36 -12.38,41.94zm-318.43 110.22c35.82,0 67.19,-6.58 94.17,-19.76 26.96,-13.19 49.66,-28.96 68.09,-47.33 18.43,-18.37 32.64,-37.14 42.62,-56.31 10,-19.18 16.77,-35.16 20.31,-47.93l4.95 -16.78c-12.86,-2.39 -27.92,-4.38 -45.18,-5.99 -17.27,-1.6 -33.3,-2.39 -48.1,-2.39 -21.01,0 -43.28,1.79 -66.81,5.38 -23.52,3.61 -45.5,9.79 -65.95,18.59 -20.43,8.78 -38.61,20.56 -54.55,35.34 -15.92,14.78 -26.73,32.95 -32.42,54.51 -1.9,7.19 -2.79,15.38 -2.67,24.56 0.14,9.2 2.64,18.17 7.48,26.96 4.86,8.8 13.45,16.18 25.75,22.17 12.29,5.99 29.73,8.98 52.31,8.98zm1140.5 -20.36c-42.8,39.93 -87.13,70.89 -132.97,92.86 -45.85,21.96 -92.91,32.95 -141.17,32.95 -45.93,0 -84.25,-7.59 -114.97,-22.77 -30.72,-15.18 -54.31,-36.15 -70.78,-62.9 -16.46,-26.77 -26.11,-58.51 -28.95,-95.26 -2.84,-36.74 1.43,-76.68 12.83,-119.81 11,-40.74 27.16,-79.49 48.45,-116.23 21.29,-36.75 47.35,-69.09 78.17,-97.05 30.82,-27.96 65.62,-50.12 104.36,-66.5 38.75,-16.38 81.08,-24.56 127.01,-24.56 42.05,0 77.88,8.59 107.51,25.76 29.63,17.18 52.63,40.74 68.97,70.7 16.36,29.95 25.81,65.5 28.35,106.63 2.55,41.14 -2.25,85.67 -14.39,133.6l-444.89 0c-11.47,48.72 -6.99,88.66 13.46,119.81 20.45,31.15 57.53,46.73 111.24,46.73 26.47,0 51.8,-5.19 76,-15.58 24.19,-10.37 45.06,-21.97 62.62,-34.74 20.92,-14.38 40.28,-31.15 58.05,-50.33l51.1 76.69zm-145.93 -375.03c-22.58,0 -44.15,3.59 -64.73,10.79 -20.58,7.18 -39.42,16.97 -56.53,29.35 -17.1,12.38 -32.17,26.56 -45.16,42.53 -13,15.98 -23.14,32.35 -30.42,49.13l317.61 0c-0.37,-17.57 -3.41,-34.35 -9.1,-50.32 -5.68,-15.98 -13.83,-29.96 -24.41,-41.94 -10.59,-11.98 -23.11,-21.57 -37.55,-28.75 -14.46,-7.2 -31.02,-10.79 -49.71,-10.79zm623.25 -103.05c22.57,0 43.72,4.2 63.43,12.59 19.71,8.38 36.99,17.37 51.85,26.95 17.72,11.19 33.63,23.97 47.74,38.35l94.47 -366.64 114.43 0 -229.34 887.84 -114.44 0 20.3 -77.87c-8.38,8.78 -19.19,18.16 -32.42,28.15 -13.23,9.98 -28.31,19.37 -45.25,28.15 -16.93,8.79 -36.16,15.98 -57.65,21.57 -21.5,5.6 -44.71,8.39 -69.61,8.39 -42.04,0 -78.11,-8.39 -108.19,-25.16 -30.08,-16.78 -53.42,-39.34 -70.03,-67.69 -16.6,-28.36 -26.68,-61.11 -30.23,-98.26 -3.56,-37.14 0.17,-76.08 11.18,-116.82 9.99,-39.14 25.99,-76.88 48,-113.22 22.01,-36.35 48.58,-68.3 79.73,-95.86 31.16,-27.56 66.09,-49.53 104.84,-65.9 38.76,-16.37 79.16,-24.57 121.19,-24.57zm-129 498.44c22.57,0 46,-4.19 70.26,-12.58 24.27,-8.38 47.22,-20.76 68.84,-37.14 21.63,-16.37 40.82,-37.14 57.58,-62.31 16.75,-25.15 29.7,-54.5 38.83,-88.06 7.95,-31.15 9.88,-58.5 5.76,-82.07 -4.11,-23.57 -12.74,-43.14 -25.88,-58.71 -13.15,-15.58 -29.8,-27.36 -49.96,-35.34 -20.17,-7.99 -41.92,-11.99 -65.28,-11.99 -27.25,0 -52.47,5.79 -75.69,17.37 -23.2,11.58 -43.8,26.36 -61.78,44.34 -17.98,17.97 -33.19,38.14 -45.61,60.51 -12.45,22.36 -21.45,43.93 -27.02,64.69 -5.7,21.57 -8.45,44.34 -8.3,68.31 0.16,23.95 4.17,45.72 12.01,65.29 7.86,19.57 20.52,35.74 37.99,48.53 17.47,12.78 40.21,19.16 68.25,19.16zm887.02 -499.63l115.6 0 -154.02 599.09 -115.61 0 13.82 -58.71c-7.35,7.18 -16.28,14.57 -26.81,22.16 -10.52,7.59 -22.31,14.58 -35.38,20.97 -13.06,6.39 -27.51,11.78 -43.38,16.17 -15.87,4.4 -33.14,6.59 -51.83,6.59 -42.03,0 -76.21,-7.99 -102.52,-23.96 -26.32,-15.97 -45.53,-37.55 -57.64,-64.7 -12.13,-27.16 -17.92,-58.71 -17.38,-94.66 0.53,-35.94 5.79,-73.49 15.79,-112.62l79.86 -310.33 114.43 0 -80.23 312.72c-5.57,20.77 -9.68,42.14 -12.32,64.11 -2.63,21.96 -1.67,41.93 2.93,59.91 4.59,17.97 13.39,32.74 26.38,44.32 12.99,11.58 32.32,17.38 58.01,17.38 23.36,0 45.35,-4.99 65.97,-14.98 20.63,-9.98 38.88,-23.37 54.72,-40.13 15.85,-16.78 29.78,-36.35 41.84,-58.72 12.04,-22.36 21.16,-45.92 27.35,-70.69l80.42 -313.92zm359.46 496.04c22.57,0 46.55,-5.19 71.9,-15.57 25.37,-10.39 53.03,-24.37 83.01,-41.94l55.42 79.08c-46.37,32.75 -88.22,55.32 -125.57,67.69 -37.33,12.39 -75.09,18.58 -113.23,18.58 -42.82,0 -80.54,-7.79 -113.13,-23.36 -32.6,-15.58 -58.7,-36.76 -78.28,-63.51 -19.58,-26.75 -32.36,-58.3 -38.38,-94.65 -6.02,-36.35 -3.85,-75.29 6.52,-116.83 11.51,-43.93 29.76,-84.87 54.73,-122.81 24.99,-37.94 54.44,-70.89 88.38,-98.84 33.93,-27.96 71.19,-49.73 111.76,-65.31 40.57,-15.57 82.26,-23.37 125.08,-23.37 37.37,0 72.12,6.8 104.25,20.38 32.14,13.57 62.2,35.54 90.16,65.9l-96.38 79.08c-20.1,-15.98 -40.37,-29.56 -60.8,-40.75 -20.44,-11.18 -41.95,-16.77 -64.54,-16.77 -25.68,0 -51.82,5.4 -78.41,16.18 -26.59,10.78 -51.28,25.56 -74.05,44.33 -22.78,18.77 -42.48,40.34 -59.12,64.7 -16.64,24.37 -28.63,50.12 -35.98,77.28 -6.18,24.77 -6.96,48.53 -2.34,71.3 4.63,22.76 13.75,42.93 27.36,60.5 13.61,17.58 30.86,31.75 51.76,42.54 20.89,10.78 44.19,16.17 69.88,16.17zm768.6 -106.63c-5.56,20.77 -9.76,38.94 -12.57,54.51 -2.82,15.58 -4.01,26.96 -3.58,34.15 2.13,6.39 5.51,12.19 10.15,17.37 4.65,5.19 7.01,7.4 7.14,6.59l11.68 0c-1.4,4 -3.69,11.18 -6.86,21.57 -3.17,10.39 -6.4,21.16 -9.7,32.35 -4.45,13.58 -9.03,27.96 -13.73,43.14 -37.36,0 -64.88,-6.99 -82.56,-20.97 -17.67,-13.98 -26.93,-35.74 -27.79,-65.3 -10.95,10.38 -23.69,20.97 -38.21,31.75 -14.53,10.79 -30.81,20.37 -48.86,28.76 -18.04,8.38 -37.97,15.17 -59.8,20.36 -21.83,5.2 -45.19,7.79 -70.1,7.79 -28.04,0 -54.4,-3.2 -79.08,-9.58 -24.7,-6.39 -45.29,-16.57 -61.81,-30.55 -16.5,-13.98 -27.91,-31.96 -34.22,-53.92 -6.31,-21.97 -5.49,-48.53 2.48,-79.68 10.36,-41.54 28.13,-76.89 53.3,-106.04 25.17,-29.15 53.78,-52.92 85.83,-71.3 32.05,-18.36 66.22,-31.55 102.5,-39.54 36.27,-7.98 70.76,-11.98 103.45,-11.98 18.69,0 36.89,0.61 54.6,1.8 17.72,1.2 36.38,3.8 56.01,7.8 2.86,-18.38 2.01,-34.16 -2.56,-47.34 -4.56,-13.17 -11.44,-23.96 -20.65,-32.35 -9.2,-8.38 -20.3,-14.58 -33.31,-18.57 -12.99,-3.99 -26.89,-5.99 -41.68,-5.99 -26.47,0 -56.62,7.39 -90.45,22.17 -33.83,14.77 -68.09,36.14 -102.81,64.1l-20.33 -41.93 -5.14 -11.99c-0.66,-0.8 -1.23,-0.8 -1.75,0 -0.5,0.81 -1.07,0.6 -1.65,-0.59 -0.6,-1.21 -1.63,-4.6 -3.1,-10.2 -1.46,-5.59 -3.47,-15.17 -6.02,-28.75 45.7,-33.54 91.21,-58.31 136.52,-74.29 45.3,-15.96 87.02,-23.95 125.16,-23.95 42.83,0 77.92,5.78 105.31,17.36 27.38,11.58 47.67,27.56 60.85,47.93 13.17,20.37 20.24,44.94 21.21,73.69 0.98,28.76 -2.77,60.31 -11.23,94.65 -3.56,12.79 -7.23,25.17 -11.05,37.15 -3.81,11.99 -7.49,24.36 -11.04,37.14 -3.53,12.78 -7.6,26.37 -12.17,40.74 -4.58,14.38 -8.71,28.36 -12.38,41.94zm-318.43 110.22c35.82,0 67.19,-6.58 94.16,-19.76 26.97,-13.19 49.66,-28.96 68.09,-47.33 18.44,-18.37 32.65,-37.14 42.63,-56.31 9.99,-19.18 16.76,-35.16 20.31,-47.93l4.95 -16.78c-12.86,-2.39 -27.92,-4.38 -45.18,-5.99 -17.27,-1.6 -33.3,-2.39 -48.1,-2.39 -21.02,0 -43.29,1.79 -66.81,5.38 -23.52,3.61 -45.51,9.79 -65.95,18.59 -20.43,8.78 -38.62,20.56 -54.55,35.34 -15.92,14.78 -26.73,32.95 -32.43,54.51 -1.89,7.19 -2.78,15.38 -2.66,24.56 0.13,9.2 2.63,18.17 7.48,26.96 4.86,8.8 13.45,16.18 25.75,22.17 12.29,5.99 29.73,8.98 52.31,8.98zm663.81 -3.59c22.57,0 46.55,-5.19 71.9,-15.57 25.36,-10.39 53.03,-24.37 83.02,-41.94l55.41 79.08c-46.37,32.75 -88.21,55.32 -125.57,67.69 -37.33,12.39 -75.09,18.58 -113.23,18.58 -42.82,0 -80.54,-7.79 -113.13,-23.36 -32.6,-15.58 -58.7,-36.76 -78.28,-63.51 -19.58,-26.75 -32.36,-58.3 -38.39,-94.65 -6.01,-36.35 -3.84,-75.29 6.53,-116.83 11.51,-43.93 29.76,-84.87 54.73,-122.81 24.99,-37.94 54.44,-70.89 88.38,-98.84 33.93,-27.96 71.19,-49.73 111.76,-65.31 40.57,-15.57 82.26,-23.37 125.08,-23.37 37.37,0 72.12,6.8 104.26,20.38 32.12,13.57 62.19,35.54 90.15,65.9l-96.38 79.08c-20.1,-15.98 -40.37,-29.56 -60.8,-40.75 -20.44,-11.18 -41.95,-16.77 -64.54,-16.77 -25.68,0 -51.83,5.4 -78.41,16.18 -26.59,10.78 -51.28,25.56 -74.05,44.33 -22.78,18.77 -42.48,40.34 -59.12,64.7 -16.64,24.37 -28.63,50.12 -35.98,77.28 -6.19,24.77 -6.97,48.53 -2.34,71.3 4.63,22.76 13.75,42.93 27.36,60.5 13.61,17.58 30.87,31.75 51.76,42.54 20.9,10.78 44.18,16.17 69.88,16.17zm405.56 -497.23l112.11 0 -154.04 599.08 -112.08 0 154.01 -599.08zm158.78 -179.73l-29.04 111.43 -112.1 0 29.03 -111.43 112.11 0zm167.36 784.8c-39.7,0 -75.5,-7.59 -107.39,-22.77 -31.87,-15.17 -57.77,-36.35 -77.69,-63.5 -19.89,-27.16 -32.98,-59.31 -39.26,-96.46 -6.29,-37.14 -3.73,-77.28 7.65,-120.41 10.24,-40.74 27.98,-79.67 53.23,-116.83 25.25,-37.14 55.03,-69.69 89.35,-97.65 34.32,-27.94 71.45,-50.12 111.37,-66.49 39.92,-16.37 79.73,-24.57 119.42,-24.57 39.7,0 75.4,8.2 107.12,24.57 31.7,16.37 57.63,38.55 77.79,66.49 20.18,27.96 33.4,60.51 39.69,97.65 6.27,37.16 4.29,76.09 -5.94,116.83 -11.4,43.13 -29.9,83.27 -55.54,120.41 -25.64,37.15 -55.36,69.3 -89.17,96.46 -33.81,27.15 -70.78,48.33 -110.9,63.5 -40.12,15.18 -80.03,22.77 -119.73,22.77zm128.82 -497.24c-27.24,0 -53.78,5.39 -79.58,16.17 -25.82,10.79 -49.26,25.17 -70.36,43.14 -21.09,17.96 -39.28,38.54 -54.57,61.7 -15.28,23.17 -26.08,47.53 -32.4,73.09 -7.35,27.16 -9.36,52.52 -6.01,76.09 3.33,23.56 10.86,43.93 22.59,61.1 11.73,17.17 27.94,30.55 48.64,40.14 20.7,9.58 44.65,14.38 71.9,14.38 27.25,0 53.68,-4.8 79.31,-14.38 25.63,-9.59 48.73,-22.97 69.3,-40.14 20.58,-17.17 38.54,-37.54 53.89,-61.1 15.35,-23.57 26.69,-48.93 34.05,-76.09 6.31,-25.56 7.96,-49.92 4.96,-73.09 -3.02,-23.16 -10.31,-43.74 -21.93,-61.7 -11.59,-17.97 -27.47,-32.35 -47.57,-43.14 -20.12,-10.78 -44.2,-16.17 -72.22,-16.17zm73.25 -192.9l-117.94 0 41.52 -49.14 35.11 -45.52 -1.35 1.2 82.22 -100.65 88.75 0 -128.31 194.11zm275.1 685.35l-112.1 0 154.02 -599.09 112.1 0 -13.82 58.71c15.48,-14.37 37.11,-29.56 64.91,-45.53 27.78,-15.98 58.8,-23.97 93.06,-23.97 42.81,0 77.14,8.2 103.01,24.57 25.86,16.37 44.82,38.34 56.88,65.9 12.05,27.55 17.78,59.51 17.17,95.86 -0.59,36.33 -5.88,74.08 -15.87,113.22l-79.87 310.33 -113.26 0 80.23 -312.73c5.45,-19.97 9.31,-40.94 11.55,-62.91 2.26,-21.95 1.32,-42.13 -2.84,-60.49 -4.14,-18.38 -12.9,-33.36 -26.28,-44.94 -13.37,-11.58 -33.3,-17.37 -59.76,-17.37 -23.35,0 -45.15,4.99 -65.39,14.97 -20.24,9.99 -38.28,23.37 -54.13,40.14 -15.84,16.78 -29.79,36.35 -41.84,58.72 -12.03,22.36 -21.15,45.92 -27.35,70.69l-80.42 313.92zm1423.3 -599.09l-697.59 887.85 -127.28 0 352.37 -448.12 -144.04 -439.73 134.3 0 105.47 319.91c4.64,-4.79 8.5,-9.58 11.58,-14.38 3.08,-4.79 6.1,-9.18 9.06,-13.18l26.25 -33.55c7.95,-11.17 16.32,-22.36 25.07,-33.54 8.75,-11.18 14.99,-18.77 18.73,-22.76l-0.19 1.19c24.96,-30.36 50.12,-61.91 75.46,-94.65 25.35,-32.76 49.33,-64.31 71.95,-94.66l-1.16 0 10.42 -14.38 129.6 0zm185.79 599.09l124.43 -484.06 -65.38 0 29.77 -116.22 65.39 0 17.27 -65.91c33.5,-130.2 105.15,-195.3 214.91,-195.3 28.02,0 51.38,9.99 70.07,29.96 18.68,19.96 32.71,42.33 42.09,67.1l-101.81 53.91c-8.91,-12.78 -16.85,-21.76 -23.83,-26.96 -6.98,-5.19 -14.67,-8.19 -23.12,-8.98 -10.37,1.6 -19.07,4.99 -26.1,10.18 -7.04,5.19 -13.09,11.58 -18.17,19.17 -5.07,7.59 -9.3,15.98 -12.68,25.16 -3.37,9.19 -6.07,17.78 -8.09,25.76l-17.27 65.91 108.6 0 -29.78 116.22 -108.6 0 -124.44 484.06 -113.26 0zm530.55 4.79c-39.69,0 -75.5,-7.59 -107.38,-22.77 -31.9,-15.17 -57.78,-36.35 -77.7,-63.5 -19.89,-27.16 -32.98,-59.31 -39.27,-96.46 -6.28,-37.14 -3.73,-77.28 7.67,-120.41 10.23,-40.74 27.97,-79.67 53.22,-116.83 25.25,-37.14 55.02,-69.69 89.36,-97.65 34.32,-27.94 71.44,-50.12 111.36,-66.49 39.92,-16.37 79.73,-24.57 119.42,-24.57 39.7,0 75.4,8.2 107.1,24.57 31.72,16.37 57.65,38.55 77.81,66.49 20.17,27.96 33.4,60.51 39.68,97.65 6.28,37.16 4.3,76.09 -5.93,116.83 -11.4,43.13 -29.91,83.27 -55.54,120.41 -25.64,37.15 -55.37,69.3 -89.17,96.46 -33.81,27.15 -70.78,48.33 -110.91,63.5 -40.11,15.18 -80.01,22.77 -119.72,22.77zm128.82 -497.24c-27.24,0 -53.77,5.39 -79.59,16.17 -25.81,10.79 -49.26,25.17 -70.35,43.14 -21.1,17.96 -39.28,38.54 -54.56,61.7 -15.3,23.17 -26.1,47.53 -32.41,73.09 -7.35,27.16 -9.35,52.52 -6,76.09 3.33,23.56 10.86,43.93 22.59,61.1 11.72,17.17 27.94,30.55 48.63,40.14 20.69,9.58 44.66,14.38 71.9,14.38 27.24,0 53.69,-4.8 79.31,-14.38 25.62,-9.59 48.73,-22.97 69.3,-40.14 20.59,-17.17 38.54,-37.54 53.89,-61.1 15.34,-23.57 26.7,-48.93 34.04,-76.09 6.32,-25.56 7.97,-49.92 4.96,-73.09 -3.01,-23.16 -10.31,-43.74 -21.92,-61.7 -11.6,-17.97 -27.46,-32.35 -47.57,-43.14 -20.12,-10.78 -44.2,-16.17 -72.22,-16.17zm1003.82 -117.43c42.81,0 76.96,8.2 102.43,24.57 25.47,16.37 44.24,38.34 56.3,65.9 12.06,27.55 17.78,59.51 17.18,95.86 -0.6,36.33 -5.9,74.08 -15.89,113.22l-79.85 310.33 -113.26 0 80.22 -312.73c5.45,-19.97 9.3,-40.94 11.56,-62.91 2.24,-21.95 1.3,-42.13 -2.84,-60.49 -4.15,-18.38 -12.91,-33.36 -26.29,-44.94 -13.37,-11.58 -32.91,-17.37 -58.59,-17.37 -22.59,0 -43.73,4.59 -63.46,13.78 -19.71,9.18 -37.61,21.57 -53.65,37.14 -16.05,15.58 -29.98,33.74 -41.77,54.52 -11.8,20.76 -21.13,43.13 -27.96,67.1l-0.81 -2.4c-2.02,7.98 -4.16,16.78 -6.43,26.36 -4.18,16.77 -10.42,41.94 -18.77,75.49l-57.45 226.45 -114.44 0 80.24 -312.73c5.44,-19.97 9.29,-40.94 11.54,-62.91 2.26,-21.95 1.12,-42.13 -3.42,-60.49 -4.53,-18.38 -13.49,-33.36 -26.86,-44.94 -13.38,-11.58 -32.91,-17.37 -58.6,-17.37 -23.36,0 -45.15,4.99 -65.38,14.97 -20.25,9.99 -38.49,23.37 -54.72,40.14 -16.24,16.78 -30.37,36.35 -42.42,58.72 -12.06,22.36 -21.18,45.92 -27.35,70.69l-80.43 313.92 -112.09 0 154.02 -599.09 112.09 0 -14.18 61.11c7.35,-7.19 16.54,-14.98 27.58,-23.37 11.03,-8.38 23.14,-16.17 36.33,-23.36 13.18,-7.19 27.93,-13.19 44.25,-17.97 16.32,-4.8 33.43,-7.2 51.33,-7.2 31.91,0 58.71,6.6 80.41,19.78 21.69,13.17 39.08,27.75 52.16,43.73 15.69,19.17 28.36,40.34 37.99,63.5 7.85,-10.39 18.36,-22.97 31.56,-37.74 13.2,-14.78 28.82,-28.76 46.81,-41.94 18.02,-13.17 38.25,-24.36 60.69,-33.54 22.46,-9.19 46.52,-13.79 72.22,-13.79zm686.18 490.06c-42.81,39.93 -87.13,70.89 -132.98,92.86 -45.86,21.96 -92.91,32.95 -141.16,32.95 -45.94,0 -84.27,-7.59 -114.97,-22.77 -30.73,-15.18 -54.33,-36.15 -70.79,-62.9 -16.45,-26.77 -26.11,-58.51 -28.95,-95.26 -2.84,-36.74 1.44,-76.68 12.82,-119.81 11.02,-40.74 27.17,-79.49 48.46,-116.23 21.3,-36.75 47.36,-69.09 78.17,-97.05 30.82,-27.96 65.61,-50.12 104.36,-66.5 38.74,-16.38 81.08,-24.56 127.01,-24.56 42.04,0 77.88,8.59 107.51,25.76 29.63,17.18 52.62,40.74 68.98,70.7 16.34,29.95 25.79,65.5 28.35,106.63 2.55,41.14 -2.25,85.67 -14.4,133.6l-444.88 0c-11.49,48.72 -7.01,88.66 13.45,119.81 20.45,31.15 57.53,46.73 111.24,46.73 26.46,0 51.81,-5.19 76,-15.58 24.18,-10.37 45.06,-21.97 62.62,-34.74 20.92,-14.38 40.27,-31.15 58.05,-50.33l51.11 76.69zm-145.94 -375.03c-22.57,0 -44.15,3.59 -64.73,10.79 -20.59,7.18 -39.42,16.97 -56.54,29.35 -17.1,12.38 -32.15,26.56 -45.15,42.53 -13,15.98 -23.14,32.35 -30.42,49.13l317.61 0c-0.38,-17.57 -3.41,-34.35 -9.1,-50.32 -5.67,-15.98 -13.82,-29.96 -24.41,-41.94 -10.59,-11.98 -23.1,-21.57 -37.56,-28.75 -14.45,-7.2 -31.01,-10.79 -49.7,-10.79zm323.45 494.85l-112.1 0 154.03 -599.09 112.09 0 -13.81 58.71c15.47,-14.37 37.1,-29.56 64.9,-45.53 27.78,-15.98 58.8,-23.97 93.06,-23.97 42.82,0 77.15,8.2 103.01,24.57 25.86,16.37 44.82,38.34 56.88,65.9 12.05,27.55 17.78,59.51 17.17,95.86 -0.58,36.33 -5.88,74.08 -15.88,113.22l-79.86 310.33 -113.25 0 80.23 -312.73c5.45,-19.97 9.3,-40.94 11.54,-62.91 2.26,-21.95 1.32,-42.13 -2.84,-60.49 -4.13,-18.38 -12.9,-33.36 -26.28,-44.94 -13.37,-11.58 -33.29,-17.37 -59.76,-17.37 -23.35,0 -45.15,4.99 -65.39,14.97 -20.24,9.99 -38.28,23.37 -54.12,40.14 -15.85,16.78 -29.8,36.35 -41.85,58.72 -12.04,22.36 -21.16,45.92 -27.35,70.69l-80.42 313.92zm658.81 5.99c-108.98,0 -146.65,-65.5 -113.02,-196.51l76.09 -293.54 -54.89 0 29.59 -115.03 54.88 0 29.96 -117.42 114.44 0 -29.97 117.42 149.48 0 -29.6 115.03 -149.46 0 -76.09 293.54c-2.15,8.79 -4.16,17.98 -6.04,27.56 -1.88,9.59 -2.27,18.38 -1.19,26.36 1.1,7.99 3.96,14.58 8.6,19.78 4.63,5.19 12.42,7.78 23.31,7.78 8.57,0 17.76,-2.79 27.58,-8.39 9.82,-5.59 22.98,-16.37 39.49,-32.34l68.71 61.1c-21.88,25.56 -46.94,47.73 -75.16,66.5 -28.22,18.77 -57.13,28.16 -86.71,28.16z"/>
   <path class="fil1" d="M20472.17 11544.57c-39.69,0 -75.5,-7.59 -107.38,-22.77 -31.9,-15.17 -57.78,-36.35 -77.7,-63.5 -19.89,-27.16 -32.98,-59.31 -39.27,-96.46 -6.28,-37.14 -3.73,-77.28 7.67,-120.41 10.23,-40.74 27.97,-79.67 53.22,-116.83 25.25,-37.14 55.02,-69.69 89.36,-97.65 34.32,-27.94 71.44,-50.12 111.36,-66.49 39.92,-16.37 79.73,-24.57 119.42,-24.57 39.7,0 75.4,8.2 107.1,24.57 31.72,16.37 57.65,38.55 77.81,66.49 20.17,27.96 33.4,60.51 39.68,97.65 6.28,37.16 4.3,76.09 -5.93,116.83 -11.4,43.13 -29.91,83.27 -55.54,120.41 -25.64,37.15 -55.37,69.3 -89.18,96.46 -33.8,27.15 -70.77,48.33 -110.9,63.5 -40.11,15.18 -80.01,22.77 -119.72,22.77zm128.82 -497.24c-27.24,0 -53.77,5.39 -79.59,16.17 -25.81,10.79 -49.27,25.17 -70.35,43.14 -21.1,17.96 -39.28,38.54 -54.57,61.7 -15.29,23.17 -26.09,47.53 -32.4,73.09 -7.35,27.16 -9.35,52.52 -6.01,76.09 3.34,23.56 10.87,43.93 22.6,61.1 11.72,17.17 27.94,30.55 48.63,40.14 20.69,9.58 44.66,14.38 71.9,14.38 27.24,0 53.69,-4.8 79.31,-14.38 25.62,-9.59 48.73,-22.97 69.3,-40.14 20.59,-17.17 38.54,-37.54 53.89,-61.1 15.34,-23.57 26.7,-48.93 34.04,-76.09 6.32,-25.56 7.97,-49.92 4.96,-73.09 -3.01,-23.16 -10.31,-43.74 -21.92,-61.7 -11.6,-17.97 -27.46,-32.35 -47.57,-43.14 -20.12,-10.78 -44.2,-16.17 -72.22,-16.17zm996.39 372.63c-42.81,39.93 -87.13,70.89 -132.98,92.86 -45.86,21.96 -92.91,32.95 -141.16,32.95 -45.94,0 -84.27,-7.59 -114.97,-22.77 -30.73,-15.18 -54.32,-36.15 -70.79,-62.9 -16.45,-26.77 -26.11,-58.51 -28.95,-95.26 -2.84,-36.74 1.44,-76.68 12.82,-119.81 11.02,-40.74 27.17,-79.49 48.46,-116.23 21.3,-36.75 47.36,-69.09 78.17,-97.05 30.82,-27.96 65.61,-50.12 104.36,-66.5 38.74,-16.38 81.08,-24.56 127.01,-24.56 42.04,0 77.88,8.59 107.51,25.76 29.62,17.18 52.62,40.74 68.98,70.7 16.34,29.95 25.8,65.5 28.35,106.63 2.55,41.14 -2.25,85.67 -14.4,133.6l-444.88 0c-11.49,48.72 -7,88.66 13.45,119.81 20.45,31.15 57.53,46.73 111.24,46.73 26.46,0 51.81,-5.19 76,-15.58 24.18,-10.37 45.06,-21.97 62.62,-34.74 20.92,-14.38 40.27,-31.15 58.05,-50.33l51.11 76.69zm-145.94 -375.03c-22.57,0 -44.15,3.59 -64.73,10.79 -20.59,7.18 -39.43,16.97 -56.54,29.35 -17.1,12.38 -32.15,26.56 -45.15,42.53 -13,15.98 -23.14,32.35 -30.43,49.13l317.62 0c-0.38,-17.57 -3.41,-34.35 -9.1,-50.32 -5.68,-15.98 -13.82,-29.96 -24.41,-41.94 -10.59,-11.98 -23.1,-21.57 -37.56,-28.75 -14.45,-7.2 -31.01,-10.79 -49.7,-10.79zm997.61 -115.03c42.8,0 76.96,8.2 102.43,24.57 25.48,16.37 44.23,38.34 56.3,65.9 12.06,27.55 17.78,59.51 17.18,95.86 -0.6,36.33 -5.9,74.08 -15.89,113.22l-79.85 310.33 -113.26 0 80.23 -312.73c5.44,-19.97 9.29,-40.94 11.54,-62.91 2.25,-21.95 1.32,-42.13 -2.83,-60.49 -4.16,-18.38 -12.9,-33.36 -26.29,-44.94 -13.38,-11.58 -32.9,-17.37 -58.6,-17.37 -22.57,0 -43.71,4.59 -63.45,13.78 -19.72,9.18 -37.6,21.57 -53.66,37.14 -16.04,15.58 -29.96,33.74 -41.76,54.52 -11.8,20.76 -21.12,43.13 -27.97,67.1l-0.79 -2.4c-2.02,7.98 -4.17,16.78 -6.44,26.36 -4.18,16.77 -10.43,41.94 -18.76,75.49l-57.45 226.45 -114.44 0 80.23 -312.73c5.45,-19.97 9.3,-40.94 11.55,-62.91 2.25,-21.95 1.1,-42.13 -3.42,-60.49 -4.54,-18.38 -13.49,-33.36 -26.87,-44.94 -13.38,-11.58 -32.9,-17.37 -58.59,-17.37 -23.36,0 -45.15,4.99 -65.4,14.97 -20.24,9.99 -38.47,23.37 -54.71,40.14 -16.24,16.78 -30.37,36.35 -42.43,58.72 -12.04,22.36 -21.16,45.92 -27.35,70.69l-80.41 313.92 -112.11 0 154.04 -599.09 112.08 0 -14.17 61.11c7.34,-7.19 16.53,-14.98 27.56,-23.37 11.04,-8.38 23.15,-16.17 36.34,-23.36 13.19,-7.19 27.94,-13.19 44.25,-17.97 16.31,-4.8 33.43,-7.2 51.34,-7.2 31.91,0 58.71,6.6 80.4,19.78 21.7,13.17 39.08,27.75 52.16,43.73 15.7,19.17 28.37,40.34 37.98,63.5 7.85,-10.39 18.37,-22.97 31.57,-37.74 13.2,-14.78 28.81,-28.76 46.82,-41.94 18.01,-13.17 38.24,-24.36 60.69,-33.54 22.44,-9.19 46.52,-13.79 72.21,-13.79zm450.33 609.88c-25.69,0 -49.01,-4 -69.95,-11.99 -20.94,-7.98 -38.44,-16.77 -52.52,-26.36 -16.95,-11.18 -31.62,-24.36 -44.05,-39.54l-94.47 366.65 -113.27 0 229.36 -887.85 113.27 0 -20.49 79.08c9.14,-8.79 20.73,-18.17 34.74,-28.15 14.01,-9.99 29.67,-19.38 47,-28.17 17.34,-8.78 36.58,-16.17 57.76,-22.16 21.17,-5.99 44.21,-8.99 69.12,-8.99 42.04,0 77.7,8.39 107.01,25.17 29.3,16.77 52.26,39.33 68.86,67.69 16.6,28.35 26.49,61.11 29.66,98.25 3.17,37.14 -0.37,76.08 -10.61,116.82 -9.98,39.15 -26.18,76.88 -48.57,113.23 -22.4,36.34 -48.98,68.29 -79.74,95.85 -30.77,27.56 -65.12,49.53 -103.1,65.9 -37.96,16.38 -77.97,24.57 -120.01,24.57zm128.02 -499.64c-22.56,0 -45.99,4.19 -70.26,12.58 -24.27,8.39 -47.44,20.97 -69.51,37.74 -22.08,16.78 -41.7,37.75 -58.85,62.91 -17.15,25.16 -29.9,54.51 -38.23,88.06 -7.97,31.15 -9.7,58.51 -5.2,82.08 4.51,23.56 13.32,43.13 26.47,58.7 13.14,15.58 29.8,27.37 49.97,35.35 20.16,7.99 41.91,11.99 65.27,11.99 26.47,0 51.31,-5.8 74.52,-17.38 23.22,-11.58 43.81,-26.36 61.78,-44.34 17.98,-17.96 33.39,-38.14 46.22,-60.49 12.81,-22.37 22.02,-43.94 27.58,-64.71 5.7,-21.57 8.46,-44.33 8.31,-68.29 -0.16,-23.97 -4.34,-45.94 -12.52,-65.91 -8.17,-19.97 -20.8,-36.34 -37.89,-49.12 -17.07,-12.79 -39.62,-19.17 -67.66,-19.17zm622.04 -110.24c30.36,0 57.22,4.99 80.57,14.98 23.36,9.99 44.38,24.96 63.07,44.93l-87.46 104.24c-10.89,-15.17 -23.32,-27.75 -37.34,-37.74 -14.01,-9.98 -29.96,-14.97 -47.87,-14.97 -23.36,0 -45.15,4.99 -65.38,14.97 -20.24,9.99 -38.49,23.37 -54.73,40.14 -16.22,16.78 -30.36,36.35 -42.41,58.72 -12.05,22.36 -21.17,45.92 -27.35,70.69l-80.43 313.92 -112.1 0 154.03 -599.09 112.1 0 -13.07 53.92c10.7,-8.79 22.53,-17.18 35.45,-25.17 12.92,-7.99 26.46,-14.97 40.62,-20.96 14.16,-5.99 28.32,-10.59 42.44,-13.78 14.12,-3.19 27.41,-4.8 39.86,-4.8zm525.04 490.06c-42.8,39.93 -87.14,70.89 -132.98,92.86 -45.85,21.96 -92.91,32.95 -141.15,32.95 -45.95,0 -84.27,-7.59 -114.99,-22.77 -30.71,-15.18 -54.31,-36.15 -70.77,-62.9 -16.47,-26.77 -26.12,-58.51 -28.95,-95.26 -2.84,-36.74 1.42,-76.68 12.82,-119.81 11,-40.74 27.16,-79.49 48.46,-116.23 21.29,-36.75 47.34,-69.09 78.17,-97.05 30.81,-27.96 65.61,-50.12 104.35,-66.5 38.75,-16.38 81.09,-24.56 127.01,-24.56 42.05,0 77.88,8.59 107.51,25.76 29.63,17.18 52.63,40.74 68.97,70.7 16.36,29.95 25.81,65.5 28.35,106.63 2.55,41.14 -2.25,85.67 -14.38,133.6l-444.89 0c-11.48,48.72 -7,88.66 13.45,119.81 20.45,31.15 57.53,46.73 111.25,46.73 26.46,0 51.8,-5.19 75.98,-15.58 24.2,-10.37 45.07,-21.97 62.63,-34.74 20.93,-14.38 40.28,-31.15 58.06,-50.33l51.1 76.69zm-145.94 -375.03c-22.57,0 -44.14,3.59 -64.73,10.79 -20.58,7.18 -39.42,16.97 -56.53,29.35 -17.1,12.38 -32.17,26.56 -45.16,42.53 -13,15.98 -23.13,32.35 -30.42,49.13l317.6 0c-0.36,-17.57 -3.4,-34.35 -9.09,-50.32 -5.68,-15.98 -13.82,-29.96 -24.41,-41.94 -10.59,-11.98 -23.1,-21.57 -37.55,-28.75 -14.45,-7.2 -31.02,-10.79 -49.71,-10.79zm416.65 53.92c-2.16,8.79 -0.93,17.17 3.66,25.16 4.6,7.99 11.2,15.57 19.81,22.77 8.62,7.18 19,14.17 31.19,20.97 12.18,6.78 24.32,13.77 36.43,20.97 17.97,9.58 36.59,19.96 55.86,31.15 19.29,11.18 36.11,24.35 50.49,39.54 14.37,15.17 24.74,32.34 31.09,51.52 6.36,19.17 6.38,41.53 0.05,67.09 -13.15,49.53 -42.24,90.07 -87.24,121.62 -45.01,31.55 -100.2,47.32 -165.59,47.32 -33.48,0 -62.64,-3.99 -87.46,-11.98 -24.85,-7.99 -45.43,-16.97 -61.79,-26.95 -16.35,-9.99 -28.53,-19.18 -36.57,-27.57 -8.03,-8.38 -11.99,-12.97 -11.87,-13.77l63.09 -82.67c8.6,4.78 19.04,10.18 31.34,16.17 12.3,5.99 25.61,11.78 39.93,17.37 14.3,5.59 29.31,10.39 45.04,14.39 15.73,3.99 30.99,5.99 45.77,5.99 24.92,0 46.71,-5 65.39,-14.98 18.69,-9.99 30.75,-24.96 36.2,-44.94 3.13,-15.18 -2.79,-28.36 -17.79,-39.53 -14.99,-11.19 -33.24,-22.78 -54.73,-34.76 -0.65,-0.79 -1.36,-1.19 -2.14,-1.19 -1.56,0 -2.27,-0.4 -2.14,-1.2l-18.18 -10.78 -0.19 1.19c-17.31,-8.78 -34.7,-18.36 -52.15,-28.75 -17.45,-10.39 -32.4,-23.16 -44.82,-38.35 -12.43,-15.17 -20.92,-33.14 -25.48,-53.91 -4.54,-20.77 -2.91,-46.33 4.95,-76.69 12.13,-47.92 38.6,-86.66 79.41,-116.22 40.8,-29.55 91.55,-44.32 152.27,-44.32 25.68,0 48.61,2.79 68.76,8.37 20.14,5.61 37.51,11.6 52.09,17.98 16.65,7.99 30.91,16.38 42.78,25.17l-70.42 92.25c-12.12,-7.18 -29.16,-15.17 -51.15,-23.96 -21.99,-8.79 -45.43,-13.18 -70.34,-13.18 -24.91,0 -46.05,5.79 -63.43,17.37 -17.38,11.59 -28.08,25.36 -32.12,41.34zm770.86 231.25c-5.57,20.77 -9.77,38.94 -12.57,54.51 -2.82,15.58 -4.02,26.96 -3.58,34.15 2.13,6.39 5.5,12.19 10.15,17.37 4.64,5.19 7.01,7.4 7.14,6.59l11.68 0c-1.4,4 -3.69,11.18 -6.86,21.57 -3.17,10.39 -6.41,21.16 -9.71,32.35 -4.45,13.58 -9.03,27.96 -13.73,43.14 -37.35,0 -64.88,-6.99 -82.56,-20.97 -17.67,-13.98 -26.93,-35.74 -27.78,-65.3 -10.96,10.38 -23.7,20.97 -38.22,31.75 -14.52,10.79 -30.8,20.37 -48.85,28.76 -18.04,8.38 -37.98,15.17 -59.81,20.36 -21.82,5.2 -45.19,7.79 -70.1,7.79 -28.03,0 -54.39,-3.2 -79.08,-9.58 -24.7,-6.39 -45.29,-16.57 -61.81,-30.55 -16.5,-13.98 -27.9,-31.96 -34.21,-53.92 -6.32,-21.97 -5.49,-48.53 2.48,-79.68 10.35,-41.54 28.13,-76.89 53.3,-106.04 25.17,-29.15 53.78,-52.92 85.83,-71.3 32.05,-18.36 66.22,-31.55 102.5,-39.54 36.26,-7.98 70.75,-11.98 103.46,-11.98 18.67,0 36.88,0.61 54.59,1.8 17.72,1.2 36.38,3.8 56,7.8 2.87,-18.38 2.01,-34.16 -2.56,-47.34 -4.56,-13.17 -11.44,-23.96 -20.64,-32.35 -9.21,-8.38 -20.31,-14.58 -33.31,-18.57 -12.99,-3.99 -26.9,-5.99 -41.69,-5.99 -26.46,0 -56.61,7.39 -90.44,22.17 -33.83,14.77 -68.1,36.14 -102.82,64.1l-20.33 -41.93 -5.13 -11.99c-0.66,-0.8 -1.24,-0.8 -1.76,0 -0.5,0.81 -1.06,0.6 -1.65,-0.59 -0.6,-1.21 -1.63,-4.6 -3.09,-10.2 -1.47,-5.59 -3.48,-15.17 -6.03,-28.75 45.71,-33.54 91.22,-58.31 136.52,-74.29 45.3,-15.96 87.02,-23.95 125.17,-23.95 42.82,0 77.91,5.78 105.31,17.36 27.38,11.58 47.66,27.56 60.84,47.93 13.18,20.37 20.24,44.94 21.22,73.69 0.98,28.76 -2.78,60.31 -11.23,94.65 -3.56,12.79 -7.23,25.17 -11.04,37.15 -3.82,11.99 -7.5,24.36 -11.05,37.14 -3.54,12.78 -7.61,26.37 -12.18,40.74 -4.58,14.38 -8.7,28.36 -12.37,41.94zm-318.43 110.22c35.81,0 67.19,-6.58 94.15,-19.76 26.97,-13.19 49.67,-28.96 68.11,-47.33 18.43,-18.37 32.63,-37.14 42.62,-56.31 9.98,-19.18 16.76,-35.16 20.31,-47.93l4.94 -16.78c-12.86,-2.39 -27.91,-4.38 -45.18,-5.99 -17.27,-1.6 -33.3,-2.39 -48.09,-2.39 -21.02,0 -43.29,1.79 -66.82,5.38 -23.52,3.61 -45.51,9.79 -65.94,18.59 -20.44,8.78 -38.63,20.56 -54.55,35.34 -15.92,14.78 -26.73,32.95 -32.43,54.51 -1.89,7.19 -2.78,15.38 -2.66,24.56 0.13,9.2 2.62,18.17 7.48,26.96 4.86,8.8 13.44,16.18 25.74,22.17 12.3,5.99 29.74,8.98 52.32,8.98zm763.75 -510.42c30.36,0 57.22,4.99 80.58,14.98 23.35,9.99 44.38,24.96 63.07,44.93l-87.47 104.24c-10.88,-15.17 -23.32,-27.75 -37.33,-37.74 -14.01,-9.98 -29.97,-14.97 -47.87,-14.97 -23.36,0 -45.15,4.99 -65.39,14.97 -20.24,9.99 -38.48,23.37 -54.72,40.14 -16.22,16.78 -30.37,36.35 -42.42,58.72 -12.04,22.36 -21.16,45.92 -27.36,70.69l-80.41 313.92 -112.11 0 154.04 -599.09 112.09 0 -13.06 53.92c10.7,-8.79 22.52,-17.18 35.44,-25.17 12.92,-7.99 26.46,-14.97 40.63,-20.96 14.16,-5.99 28.32,-10.59 42.44,-13.78 14.12,-3.19 27.4,-4.8 39.85,-4.8zm163.16 9.6l112.1 0 -154.03 599.08 -112.09 0 154.02 -599.08zm158.77 -179.73l-29.04 111.43 -112.09 0 29.03 -111.43 112.1 0zm422.64 570.33c-5.58,20.77 -9.77,38.94 -12.58,54.51 -2.81,15.58 -4.01,26.96 -3.57,34.15 2.12,6.39 5.49,12.19 10.14,17.37 4.64,5.19 7.02,7.4 7.15,6.59l11.66 0c-1.39,4 -3.68,11.18 -6.86,21.57 -3.16,10.39 -6.4,21.16 -9.7,32.35 -4.45,13.58 -9.03,27.96 -13.73,43.14 -37.36,0 -64.88,-6.99 -82.55,-20.97 -17.67,-13.98 -26.93,-35.74 -27.79,-65.3 -10.96,10.38 -23.69,20.97 -38.22,31.75 -14.52,10.79 -30.8,20.37 -48.85,28.76 -18.04,8.38 -37.98,15.17 -59.81,20.36 -21.82,5.2 -45.19,7.79 -70.1,7.79 -28.02,0 -54.39,-3.2 -79.08,-9.58 -24.69,-6.39 -45.29,-16.57 -61.8,-30.55 -16.51,-13.98 -27.9,-31.96 -34.22,-53.92 -6.31,-21.97 -5.48,-48.53 2.47,-79.68 10.37,-41.54 28.15,-76.89 53.31,-106.04 25.16,-29.15 53.77,-52.92 85.84,-71.3 32.05,-18.36 66.21,-31.55 102.49,-39.54 36.27,-7.98 70.76,-11.98 103.45,-11.98 18.68,0 36.88,0.61 54.6,1.8 17.72,1.2 36.39,3.8 56.01,7.8 2.87,-18.38 2.01,-34.16 -2.56,-47.34 -4.56,-13.17 -11.45,-23.96 -20.64,-32.35 -9.22,-8.38 -20.32,-14.58 -33.32,-18.57 -12.98,-3.99 -26.9,-5.99 -41.68,-5.99 -26.46,0 -56.62,7.39 -90.44,22.17 -33.84,14.77 -68.1,36.14 -102.83,64.1l-20.32 -41.93 -5.13 -11.99c-0.67,-0.8 -1.25,-0.8 -1.76,0 -0.51,0.81 -1.06,0.6 -1.65,-0.59 -0.6,-1.21 -1.63,-4.6 -3.09,-10.2 -1.47,-5.59 -3.48,-15.17 -6.03,-28.75 45.71,-33.54 91.2,-58.31 136.51,-74.29 45.31,-15.96 87.03,-23.95 125.17,-23.95 42.82,0 77.92,5.78 105.3,17.36 27.4,11.58 47.68,27.56 60.85,47.93 13.19,20.37 20.25,44.94 21.22,73.69 0.97,28.76 -2.77,60.31 -11.23,94.65 -3.56,12.79 -7.24,25.17 -11.04,37.15 -3.81,11.99 -7.49,24.36 -11.04,37.14 -3.55,12.78 -7.61,26.37 -12.19,40.74 -4.57,14.38 -8.69,28.36 -12.36,41.94zm-318.45 110.22c35.82,0 67.21,-6.58 94.17,-19.76 26.96,-13.19 49.66,-28.96 68.09,-47.33 18.43,-18.37 32.64,-37.14 42.64,-56.31 9.98,-19.18 16.75,-35.16 20.3,-47.93l4.95 -16.78c-12.86,-2.39 -27.92,-4.38 -45.18,-5.99 -17.27,-1.6 -33.3,-2.39 -48.1,-2.39 -21.02,0 -43.29,1.79 -66.81,5.38 -23.53,3.61 -45.51,9.79 -65.94,18.59 -20.44,8.78 -38.63,20.56 -54.55,35.34 -15.94,14.78 -26.74,32.95 -32.43,54.51 -1.89,7.19 -2.79,15.38 -2.66,24.56 0.13,9.2 2.62,18.17 7.47,26.96 4.87,8.8 13.44,16.18 25.75,22.17 12.3,5.99 29.74,8.98 52.3,8.98zm524.84 -93.45c-1.89,7.19 -2.49,14.78 -1.79,22.76 0.7,7.99 3.09,15.18 7.15,21.57 4.07,6.39 10.36,12.18 18.9,17.38 8.53,5.19 19.74,8.18 33.63,8.98l-29.59 115.03c-33.23,-1.61 -60.42,-8.19 -81.58,-19.77 -21.17,-11.59 -37.19,-26.16 -48.06,-43.73 -10.9,-17.58 -17.19,-37.14 -18.9,-58.72 -1.69,-21.57 0.24,-42.73 5.81,-63.5l181.74 -702.12 114.44 0 -181.75 702.12z"/>
   <path class="fil2 str1" d="M19506.52 9469.42c-6610.45,-617.18 -11530.74,479.22 -18012.25,932.26 -292.34,10.77 -1190.84,6.38 -1378.89,74.87 253.63,270.96 528.77,549.23 798.83,828.67 149.42,154.6 262.93,279.46 403.58,414.54 182.15,174.97 218.02,82.43 477.66,2.85 2070.5,-634.63 4656.43,-869.97 6839.44,-1125 3173.44,-370.73 7077.73,-937.82 10387.83,-932.39 483.8,-195.8 -1552.56,-337.69 483.8,-195.8z"/>
   <path class="fil3 str2" d="M1691.2 10039.63l669.14 -2456.87 -382.85 0c-317.57,2.53 -211.49,-725.66 179.77,-685.79l390.62 0 178.63 -560.57c32.38,-101.65 75.35,-213.42 133.17,-332.91 150.4,-310.66 364.2,-559.47 639.17,-745.7 275.03,-186.22 552.64,-279.66 832.28,-279.66 328.47,0 588.14,128.74 779,386.19 289.44,319.44 27.13,771.57 -166.45,632.51 -31.07,-62.12 -70.59,-117.4 -114.31,-166.45 -102.35,-114.79 -218.93,-191.94 -352.88,-206.39 -355.31,-38.41 -668.52,194.44 -827.81,711.31l-173.11 561.67 506.02 0c337.22,63.34 141.19,671.58 -180.87,685.79l-522.67 0 -671.36 2455.74c-39.96,79.9 -89.89,186.45 -152.04,320.72 -110.96,217.49 -274.08,390.6 -489.37,519.34 -214.17,128.71 -435,193.08 -661.38,193.08 -278.52,0 -491.59,-99.87 -638.05,-299.61 -314.44,-338.03 -112.24,-834.34 159.77,-539.32 97.67,150.92 219.73,226.38 366.22,226.38 226.36,0 392.81,-139.83 499.36,-419.46z"/>
   <path class="fil3 str3" d="M3727.56 8814.76c-47.29,189.68 -65.03,275.24 -67.78,357.06 -4.62,137.65 39.85,252.95 184.93,252.95 63.21,0 257.63,-29.79 422.26,-278.99l-3.74 0c82.75,-137.65 183.63,-483.54 245.34,-769.96 48.16,-215.72 71.64,-360.8 78.46,-453.8 7.36,-107.86 99.99,-208.29 238.51,-234.33 3.69,0 18.61,0 26.17,-3.69l-7.68 7.43c18.93,-11.18 52.66,-18.61 71.27,-18.61 115.79,-14.87 239.51,66.95 221.9,148.77 -58.34,185.99 -122.24,427.76 -193.25,769.96 -110.25,513.32 -152.1,762.52 -156.72,900.17l-1 29.73c0.37,100.43 -121.42,182.25 -255.33,182.25 -141.33,0 -260.99,-92.94 -249.88,-200.86l1.75 -52.03c-46.78,63.21 -96.87,115.29 -165.45,163.64 -171.13,111.6 -402.4,130.21 -461.92,130.21 -282.68,0 -531.12,-133.9 -522,-405.46 1.75,-52.08 10.94,-104.17 37.91,-241.76l219.06 -985.74c17.3,-70.64 26.73,-130.16 31.92,-174.81 10.68,-96.69 70.26,-208.29 216.22,-234.34l-7.49 0c7.61,-3.69 22.48,-3.69 37.34,-3.69 3.75,0 15,-3.74 18.74,-3.74l-7.43 0c11.24,-3.69 29.98,-7.43 48.59,-7.43 126.97,-14.87 254.13,74.38 232.27,171.12 -42.16,148.77 -63.14,219.42 -93.44,345.89 -4.31,18.61 -12.62,44.65 -17.11,66.95l-122.42 543.11zm1643.88 -436.46c31.09,-151.88 67.13,-337.87 71.85,-478.58l0.75 -22.35c-0.87,-85.51 54.47,-182.25 185.19,-197.12 37.29,-3.74 67.2,-7.43 104.61,-14.86 3.75,0 15,-3.75 18.74,-3.75 119.54,-14.86 243.39,63.27 229.21,152.52 -8.93,44.65 12.3,-33.48 -9.43,59.52 19.36,-22.3 46.27,-48.34 73.01,-70.7 152.7,-115.29 352.19,-185.94 567.92,-185.94 234.33,0 547.79,81.82 537.31,393.65 -2.25,66.96 -16.17,148.78 -51.64,319.27 -17.54,78.07 -35.66,174.81 -53.38,259.74 -17.86,89.26 -39.22,171.08 -56.96,256.64 -35.14,159.31 -97.33,460.02 -114.68,645.38 -11.18,111.55 -144.15,193.42 -289.18,193.42l-33.48 0c-122.9,3.69 -231.63,-81.87 -202.47,-174.81 41.2,-118.46 88.11,-296.97 155.87,-653.45l52.88 -244.88c39.57,-181.61 66.75,-326.69 70.35,-433.92 6,-178.56 -47.3,-252.32 -210.93,-252.32 -141.4,0 -316.32,114.67 -428.68,248.57 -120.28,148.2 -174.16,422.81 -214.38,623.66l-81.54 433.98c-22.48,115.3 -32.66,197.12 -38.76,267.18 -11.06,107.86 -147.46,182.25 -288.8,182.25l-29.73 0c-126.6,3.74 -231.46,-85.56 -210.03,-171.07 41.7,-133.33 72.36,-270.92 104.01,-437.72l142.37 -694.31zm2363.96 603.84c-8.62,256.63 74.38,442.63 234.33,442.63 104.12,0 263.13,-81.82 402.04,-342.2 103.11,-189.73 155.33,-416.64 325.66,-1167.98 -70.07,-18.61 -129.09,-33.48 -196.04,-33.48 -587.66,0 -758.12,866.7 -765.99,1101.03zm1259.24 -171.12c-4.87,33.47 -9.56,63.21 -18.11,96.68 -40.11,197.17 -89.02,435.25 -94.39,595.14 -7.12,100.43 -103.24,193.43 -244.7,197.17 -141.34,0 -268.55,-89.25 -249.89,-200.86 4.95,-37.22 0.88,-26.04 22.94,-130.21 -143.97,189.73 -317.6,375.72 -592.85,375.72 -334.76,0 -617.67,-215.77 -603.43,-639.79 3.38,-100.43 72.83,-617.44 421.85,-1041.51 216.79,-252.94 553.73,-427.76 910.8,-427.76 85.56,0 152.14,11.18 207.54,22.35 39.35,-174.81 57.71,-278.98 52.91,-357.11 -0.45,-96.69 77.31,-197.12 211.84,-215.73 11.31,-3.74 37.42,-7.43 52.47,-11.17 145.9,-26.05 292.6,37.22 266.75,141.34 -16.24,40.96 -21.74,92.99 -34.99,156.25 -8.68,37.17 -17.49,78.13 -26.6,126.48 -4.56,26.04 -13,55.77 -17.74,85.56 -8.56,33.47 -17.24,70.64 -26.05,111.55l-238.35 1115.9zm1740.73 -885.26c-66.2,-22.35 -147.15,-48.39 -236.4,-48.39 -565.41,0 -740.93,796 -751.17,1101.03 -8.5,252.94 56.07,435.19 242.01,435.19 107.86,0 247.51,-59.52 380.23,-245.51 105.05,-137.6 175.51,-353.32 251.27,-725.3l114.06 -517.02zm290.85 -241.76c135.28,-40.97 250.77,63.21 228.84,163.64 -30.17,122.72 -77.45,312.46 -152.21,654.66l-79.2 364.49c-62.34,305.03 -100.7,561.67 -104.32,669.53 -3.12,92.99 -128.1,159.95 -254.7,163.69 -130.34,3.69 -239.32,-74.39 -228.71,-167.38 5.81,-63.26 19.86,-148.77 37.36,-226.9 -159.52,208.29 -364.26,435.19 -654.42,435.19 -308.72,0 -606.95,-200.86 -592.7,-624.87 5.75,-171.13 128.92,-848.09 686.48,-1279.59 91.5,-66.95 311.97,-208.29 657.91,-208.29 174.82,0 288.92,37.22 395.4,78.13l60.27 -22.3zm1875.62 -29.79c114.48,26.04 148.02,133.91 115.79,208.29 -24.36,59.52 -92.06,81.82 -173.88,81.82 -48.34,0 -89,-7.43 -118.29,-22.3l3.75 0c-44.16,-14.86 -92.12,-26.04 -147.9,-26.04 -453.8,0 -738.36,498.45 -755.36,1004.29 -6.12,182.3 16.11,405.46 179.99,509.63 94.62,63.21 186.86,85.51 276.12,85.51 81.82,0 153.01,-14.87 224.53,-40.91 108.91,-29.73 184.49,44.65 155.95,119.04 -36.35,85.56 -150.03,148.77 -273.44,167.38 -56.02,7.43 -126.84,11.18 -193.8,11.18 -587.7,0 -934.02,-319.9 -917.02,-825.79 19.5,-580.22 467.69,-1298.14 1367.8,-1298.14 111.61,0 193.05,11.17 255.76,26.04zm894.62 -498.4c-4.12,122.73 -122.1,312.41 -337.83,312.41 -126.47,0 -254.68,-59.52 -250.06,-197.11 3.87,-115.3 114.42,-305.03 345.06,-305.03 130.17,0 247.08,63.26 242.83,189.73zm-352.4 1631.01c-79.41,370.72 -116.51,590.18 -131.92,716.02 -11.06,107.92 -147.46,182.3 -288.8,182.3l-29.79 0c-119.11,3.69 -208.61,-100.43 -194.36,-193.42 0.13,-3.74 4.12,-11.18 4.37,-18.61 21.21,-77.5 50.76,-181.67 81.9,-333.55l75.44 -363.87c105.73,-490.38 147.31,-731.52 148.1,-864.84 -0.75,-89.26 43.79,-197.12 185.43,-204.55 52.28,-7.44 89.75,-14.87 130.91,-22.3 127.35,-26.05 232.08,66.95 221.4,163.64 -4.24,14.86 -8.81,40.91 -9.43,59.52 -17.12,66.95 -38.7,155.57 -65.18,278.35l-128.07 601.31zm1397.85 -1307.42c104.17,0 246.76,-37.22 371.86,-107.87 183.06,-133.9 213.85,-163.69 234.66,-230.64 29.41,-100.43 -53.65,-174.81 -176.38,-174.81 -182.25,0 -236.96,78.12 -266.5,182.24 -21.24,78.13 -83.38,156.26 -178.57,223.21 -57.33,44.66 -66.89,107.87 14.93,107.87zm266.11 494.71c-43.28,-40.91 -115.79,-96.74 -223.65,-96.74 -531.93,0 -690.97,859.26 -700.71,1149.37 -11.75,349.68 132.89,472.41 304.02,472.41 587.65,0 703.27,-1004.29 709.27,-1182.85 3.12,-92.99 4.76,-252.94 -88.93,-342.19zm429.26 -156.21c186.93,193.37 187.11,409.15 183.61,513.27 -19.49,580.27 -423.29,1417.18 -1275.06,1417.18 -215.78,0 -425.76,-59.52 -566.47,-189.68 -86.38,-85.56 -222.27,-249.2 -211.27,-576.53 20.12,-598.88 443.64,-1357.66 1280.55,-1357.66 264.12,0 470.29,63.21 588.64,193.42zm449.84 560.4c31.1,-151.88 67.13,-337.87 71.86,-478.58l0.75 -22.35c-0.87,-85.51 54.47,-182.25 185.18,-197.12 37.29,-3.74 67.2,-7.43 104.62,-14.86 3.74,0 14.99,-3.75 18.73,-3.75 119.54,-14.86 243.39,63.27 229.21,152.52 -8.93,44.65 12.31,-33.48 -9.43,59.52 19.36,-22.3 46.28,-48.34 73.02,-70.7 152.7,-115.29 352.19,-185.94 567.91,-185.94 234.34,0 547.79,81.82 537.32,393.65 -2.25,66.96 -16.18,148.78 -51.64,319.27 -17.54,78.07 -35.66,174.81 -53.38,259.74 -17.87,89.26 -39.23,171.08 -56.97,256.64 -35.14,159.31 -97.33,460.02 -114.68,645.38 -11.18,111.55 -144.15,193.42 -289.18,193.42l-33.47 0c-122.91,3.69 -231.64,-81.87 -202.47,-174.81 41.2,-118.46 88.11,-296.97 155.86,-653.45l52.88 -244.88c39.58,-181.61 66.75,-326.69 70.36,-433.92 6,-178.56 -47.3,-252.32 -210.94,-252.32 -141.39,0 -316.32,114.67 -428.68,248.57 -120.27,148.2 -174.15,422.81 -214.38,623.66l-81.53 433.98c-22.49,115.3 -32.67,197.12 -38.77,267.18 -11.05,107.86 -147.46,182.25 -288.8,182.25l-29.73 0c-126.6,3.74 -231.46,-85.56 -210.03,-171.07 41.7,-133.33 72.37,-270.92 104.01,-437.72l142.37 -694.31z"/>
   <path class="fil1 str4" d="M19512.7 7904.89c-68.73,-22.9 -152.72,-49.62 -244.35,-49.62 -580.33,0 -733.04,817.03 -733.04,1130.11 0,259.61 72.54,446.69 263.43,446.69 110.73,0 251.99,-61.09 381.8,-251.98 103.09,-141.26 167.99,-362.71 232.89,-744.49l99.27 -530.71zm290.16 -248.16c137.44,-41.99 259.62,64.9 240.53,168 -26.72,125.98 -68.72,320.7 -133.63,671.95l-68.72 374.15c-53.45,313.07 -84,576.51 -84,687.23 0,95.45 -125.98,164.17 -255.8,167.99 -133.62,3.82 -248.16,-76.36 -240.53,-171.81 3.82,-64.9 15.28,-152.72 30.54,-232.88 -156.53,213.8 -358.88,446.68 -656.68,446.68 -316.88,0 -629.96,-206.16 -629.96,-641.41 0,-175.62 103.09,-870.48 660.51,-1313.37 91.63,-68.71 313.07,-213.8 668.14,-213.8 179.44,0 297.8,38.18 408.52,80.18l61.08 -22.91zm850.22 969.75c-64.91,213.81 -122.17,545.97 -152.71,710.14 -11.46,22.91 -15.28,42 -15.28,76.37l-11.45 0c72.54,38.17 160.35,80.16 278.7,80.16 236.72,0 366.52,-133.62 435.25,-217.62 206.16,-248.16 271.07,-702.49 271.07,-931.56 0,-217.63 -72.53,-404.71 -251.98,-404.71 -202.35,0 -419.97,255.8 -553.6,687.22zm1343.91 -393.24c0,389.43 -179.44,893.39 -481.06,1191.2 -206.17,206.16 -488.7,335.98 -809.4,335.98 -72.54,0 -164.17,0 -278.7,-22.92 -11.47,76.36 -26.73,141.26 -42.01,217.63 -15.27,80.18 -30.54,156.53 -45.81,232.89 -22.9,125.99 -34.36,232.89 -42,301.61 -11.45,122.18 -122.17,217.63 -286.34,209.99l-26.73 0c-125.99,0 -248.16,-83.99 -229.07,-175.62 30.54,-114.54 61.09,-263.44 91.63,-408.53 7.63,-41.99 19.09,-83.99 22.91,-125.98 0,-3.82 3.81,-19.09 11.45,-38.19 3.81,-11.45 3.81,-26.71 7.64,-38.17l-3.83 3.82 240.54 -1240.83c15.26,-80.18 22.9,-148.89 34.35,-213.81 7.64,-53.44 19.09,-106.89 30.55,-175.62 11.45,-22.9 11.45,-45.82 11.45,-57.27 30.54,-156.53 34.37,-282.52 30.54,-362.7 3.83,-72.54 49.64,-171.81 168,-187.08 49.63,-3.82 95.44,-11.46 133.62,-19.09 133.63,-22.91 259.63,57.27 251.99,156.54 -11.45,53.45 -22.91,103.08 -34.37,152.72 61.09,-87.82 133.64,-175.63 221.44,-240.54 45.82,-34.36 187.09,-129.81 446.7,-129.81 351.26,0 576.51,221.44 576.51,633.78zm1369.46 -278.71c-45.82,-42 -122.17,-99.26 -232.89,-99.26 -545.97,0 -679.6,881.94 -679.6,1179.73 0,358.89 152.72,484.88 328.34,484.88 603.24,0 687.23,-1030.84 687.23,-1214.1 0,-95.45 -3.82,-259.62 -103.08,-351.25zm435.24 -160.35c198.54,198.53 206.17,419.97 206.17,526.87 0,595.6 -385.61,1454.63 -1259.92,1454.63 -221.44,0 -439.06,-61.08 -587.96,-194.71 -91.63,-87.82 -236.71,-255.8 -236.71,-591.78 0,-614.68 408.52,-1393.54 1267.55,-1393.54 271.08,0 484.88,64.9 610.87,198.53zm781.5 1943.32c-122.17,-30.54 -232.89,-95.44 -240.52,-198.53 -38.18,-437.78 -68.73,-640.13 -156.54,-1131.38 -49.64,-289.53 -91.63,-457.51 -118.35,-563.78l0 3.82c-30.55,-103.08 80.16,-190.9 206.16,-187.08l80.18 0c160.35,-3.82 278.71,99.27 290.16,217.63 3.82,79.54 15.28,205.52 38.18,365.24 45.81,350.62 91.63,636.33 141.27,994.57 26.71,-57.26 49.63,-117.72 72.53,-178.81 263.44,-621.05 393.26,-971.66 458.16,-1188.64 38.18,-129.82 171.8,-225.26 347.43,-213.81l26.73 0c114.53,0 202.35,99.27 156.53,175.62 -11.46,19.1 -19.09,34.37 -30.55,57.28 -91.63,171.17 -190.9,395.79 -255.8,548.5l-618.5 1356.64c-213.81,404.71 -458.16,817.04 -1030.84,904.85 -133.63,0 -263.44,-83.99 -240.54,-171.8 42.01,-122.18 175.64,-183.26 313.08,-190.9 221.44,-15.27 385.61,-271.07 461.96,-416.16l99.27 -183.26zm2518.67 -1782.97c-45.82,-42 -122.18,-99.26 -232.9,-99.26 -545.96,0 -679.59,881.94 -679.59,1179.73 0,358.89 152.72,484.88 328.34,484.88 603.24,0 687.23,-1030.84 687.23,-1214.1 0,-95.45 -3.82,-259.62 -103.08,-351.25zm435.23 -160.35c198.54,198.53 206.18,419.97 206.18,526.87 0,595.6 -385.61,1454.63 -1259.92,1454.63 -221.44,0 -439.06,-61.08 -587.96,-194.71 -91.63,-87.82 -236.71,-255.8 -236.71,-591.78 0,-614.68 408.52,-1393.54 1267.55,-1393.54 271.07,0 484.88,64.9 610.86,198.53z"/>
   <path class="fil2" d="M20259.48 2905.39c-503.53,-649.11 -1290.31,-1067.26 -2175.33,-1067.26 -408.07,0 -794.75,89.5 -1143.06,248.66 56.78,-3.43 113.98,-5.8 171.71,-5.8 733.07,0 1398.67,287.15 1891.87,754.51 122.59,-16.74 247.45,-26.02 374.57,-26.02 309.38,0 606.47,51.73 884.07,145.88 15.18,5.15 30.5,10.09 45.54,15.44 -16.2,-22.05 -32.58,-43.83 -49.37,-65.41z"/>
   <path class="fil4" d="M20308.85 2970.8c-15.04,-5.35 -30.36,-10.29 -45.54,-15.44 -277.6,-94.15 -574.69,-145.88 -884.07,-145.88 -127.12,0 -251.98,9.28 -374.57,26.02 473.82,448.86 787.94,1064.09 848.71,1752.48 7.26,80.83 11.49,162.43 11.49,245.08 0,1112.09 -659.91,2069.33 -1609.11,2503.41 1439.98,-88.61 2580.52,-1283.95 2580.52,-2746.22 0,-605.49 -196.07,-1165 -527.43,-1619.45z"/>
   <path class="fil2 str0" d="M15342.11 4818.03c89.67,1093.8 818.26,2006.24 1812.45,2363.02 -298.69,-409.57 -486.79,-904.58 -521.13,-1441.64 -516.49,-175.14 -963.88,-499.18 -1291.32,-921.38z"/>
   <path class="fil2" d="M19864.87 4833.06c0,-82.65 -4.23,-164.25 -11.49,-245.08 -486.03,778.81 -1350.17,1297.36 -2335.9,1297.36 -309.36,0 -606.45,-51.73 -884.05,-145.93 34.34,537.06 222.44,1032.07 521.13,1441.64 290.36,104.19 603.21,161.37 929.59,161.37 57.64,0 114.73,-2.42 171.61,-5.95 949.2,-434.08 1609.11,-1391.32 1609.11,-2503.41z"/>
   <path class="fil4" d="M16633.43 5739.41c-3.79,-58.85 -6.3,-117.95 -6.3,-177.81 0,-1392.93 1034.89,-2543.34 2377.54,-2726.1 -493.2,-467.36 -1158.8,-754.51 -1891.87,-754.51 -57.73,0 -114.93,2.37 -171.71,5.8 -949.2,434.14 -1609.11,1391.41 -1609.11,2503.46 0,76.85 3.93,152.65 10.13,227.78 327.44,422.2 774.83,746.24 1291.32,921.38z"/>
   <path class="fil4 str5" d="M17810.87 1132c-242.64,-18.05 -461.02,166.23 -487.76,411.6 -26.74,245.37 148.26,458.96 390.9,476.92 242.73,18.05 461.03,-166.23 487.77,-411.6 26.74,-245.37 -148.27,-458.96 -390.91,-476.92z"/>
   <path class="fil5 str5" d="M18609.86 5744.28l-429.27 0c-206.15,0 -368.31,140.77 -360.31,312.8l0 0c8.06,172.1 183.34,313 389.62,313l713.73 0c134.99,252.56 250.16,451.04 313.72,567.24 395.47,612.16 826.03,24.63 644.12,-244.56 -344.77,-530 -1732.34,-2274.56 -1052.85,-4160.54l64.79 -165.66c27.95,-65.9 58.37,-131.8 91.64,-197.9l-19.17 12.02c194.58,-500.04 339.51,-881.54 386.76,-1027.64 240.27,-458.51 -259.05,-621.9 -498.81,-290.51 -342.89,473.85 -695.79,2084.59 -1289.29,1598.85 -584.86,-470.08 -1048.05,-2017.46 -1655.98,-1632.19 -155.26,302.47 -134.98,324.31 923.98,1648.37 782.43,982.6 594.41,1779.59 185.49,2755.82 -263.09,627.95 -572.71,1288.52 -637.63,1552.97 -109.71,446.49 572.31,667.72 756.89,13.06 51.92,-141.55 494.77,-1247.5 972.39,-2448.8 109.32,479.7 301.76,967.2 500.18,1393.67z"/>
   <path class="fil0 str6" d="M17810.87 1132c-242.64,-18.05 -461.02,166.31 -487.76,411.68 -26.74,245.29 148.26,458.88 390.9,476.92 242.73,17.97 461.03,-166.31 487.77,-411.68 26.74,-245.37 -148.19,-458.87 -390.91,-476.92z"/>
   <path class="fil2 str1" d="M15908.56 829.19c607.93,-385.27 1071.12,1162.11 1655.98,1632.19 593.37,485.74 946.4,-1125 1289.29,-1598.85 239.76,-331.39 739.08,-168 498.81,290.51 -55.63,172.03 -246.64,670.45 -494.84,1304.63 -522.21,1848.94 691.96,3725.3 1023.67,4235.16 181.91,269.12 -248.59,856.58 -644.19,244.49 -79.03,-144.54 -237.87,-416.33 -415.42,-761.17 -44.33,25.99 -98.46,41.2 -157.41,41.2l-549.7 0c-155.98,0 -288.43,-106.52 -294.54,-236.63l0 0c-6.04,-130.05 116.53,-236.44 272.38,-236.44l517.33 0c-198.35,-426.47 -390.99,-914.1 -500.24,-1393.87 -477.68,1201.5 -920.53,2307.45 -972.39,2449 -184.58,654.66 -866.6,433.43 -756.83,-13.06 64.86,-264.52 374.48,-925.02 637.63,-1552.97 408.86,-976.16 596.88,-1773.22 -185.55,-2755.82 -1058.96,-1324.06 -1079.31,-1345.9 -923.98,-1648.37z"/>
  </g>
 </g>
</svg>
